<svg width="18" height="18" viewBox="0 0 18 18" fill="none" xmlns="http://www.w3.org/2000/svg">
<g clip-path="url(#clip0_34_290)">
<path d="M16.3509 7.50011C16.6935 9.18109 16.4494 10.9287 15.6593 12.4515C14.8693 13.9742 13.5811 15.1802 12.0096 15.8681C10.438 16.5561 8.67817 16.6845 7.02342 16.2319C5.36868 15.7793 3.91909 14.7732 2.9164 13.3812C1.91372 11.9892 1.41854 10.2955 1.51344 8.58265C1.60835 6.86977 2.28761 5.24118 3.43793 3.96849C4.58826 2.6958 6.14013 1.85594 7.83475 1.58895C9.52936 1.32197 11.2643 1.64401 12.7502 2.50136" stroke="#219C90" stroke-width="2" stroke-linecap="round" stroke-linejoin="round"/>
<path d="M6.75 8.25L9 10.5L16.5 3" stroke="#219C90" stroke-width="2" stroke-linecap="round" stroke-linejoin="round"/>
</g>
<defs>
<clipPath id="clip0_34_290">
<rect width="18" height="18" fill="white"/>
</clipPath>
</defs>
</svg>
