<svg width="126" height="32" viewBox="0 0 126 32" fill="none" xmlns="http://www.w3.org/2000/svg">
<path d="M63.1392 22.7496C60.9797 21.9773 59.1203 20.4116 57.953 18.4416C57.3685 17.4552 56.8923 16.3078 56.7571 15.1604C56.6805 14.5092 56.7893 13.7205 57.4089 13.3549C58.0858 12.9558 58.802 13.5216 59.3613 13.8738C59.5211 13.9745 59.6995 13.7434 59.5632 13.6123C58.8149 12.8985 57.6564 12.3655 56.8174 13.2595C56.0363 14.0921 56.244 15.326 56.5196 16.3242C57.0772 18.3422 58.3029 20.1729 59.9195 21.497C60.8399 22.2506 61.8866 22.8269 63.0111 23.213C63.3054 23.3142 63.4283 22.8526 63.1392 22.7496Z" fill="#231F20"/>
<path d="M59.8092 13.672C59.7144 12.4714 59.9689 11.1327 60.7354 10.172C61.4147 9.32068 62.4971 8.77538 63.5976 8.95793C64.6625 9.13404 65.5752 9.87944 66.1129 10.7933C66.7694 11.9097 66.8753 13.1776 66.9379 14.4414C66.9502 14.6824 67.2954 14.6807 67.3118 14.4414C67.4475 12.417 66.7928 10.1105 64.9726 8.99947C64.1973 8.52613 63.2507 8.32486 62.3625 8.56182C61.4533 8.80405 60.6728 9.43828 60.1754 10.2276C59.5213 11.2655 59.4224 12.4807 59.5687 13.672C59.5874 13.8218 59.8215 13.8288 59.8092 13.672Z" fill="#231F20"/>
<path d="M67.1857 14.7818C67.3267 16.3229 67.043 17.8669 66.4075 19.2764C65.7669 20.6982 64.7792 21.7806 63.6512 22.8302C63.5892 22.8882 63.6687 22.9888 63.7413 22.9467C65.073 22.1703 66.0682 20.7596 66.6855 19.3753C67.325 17.9407 67.5783 16.3445 67.4209 14.7818C67.4063 14.6332 67.1717 14.6308 67.1857 14.7818Z" fill="#231F20"/>
<path d="M63.5503 23.1432C63.9686 23.1432 63.9692 22.4932 63.5503 22.4932C63.132 22.4932 63.1314 23.1432 63.5503 23.1432Z" fill="#231F20"/>
<path d="M59.5206 14.2493C59.9582 15.7384 60.4971 17.1935 61.1249 18.6123C61.4361 19.315 61.7714 20.0078 62.1301 20.6877C62.3144 21.0375 62.5069 21.3822 62.707 21.7233C62.8983 22.0492 63.0762 22.4242 63.3506 22.6881C63.4547 22.7881 63.6513 22.6892 63.6027 22.5412C63.4962 22.2165 63.2844 21.9327 63.1118 21.6396C62.9117 21.2991 62.7175 20.955 62.5256 20.6093C62.1535 19.9376 61.8042 19.2536 61.4783 18.5579C60.8142 17.1391 60.2648 15.6688 59.8114 14.1698C59.7558 13.9837 59.4656 14.0621 59.5206 14.2493Z" fill="#231F20"/>
<path d="M66.9622 11.507C67.463 10.4486 68.876 10.1052 69.7519 10.9208C70.21 11.3473 70.3148 11.9663 70.3785 12.5608C70.4394 13.1271 70.4786 13.6982 70.4803 14.2681C70.4844 15.4605 70.3118 16.6821 69.739 17.7441C69.1867 18.768 68.3231 19.5643 67.456 20.3196C66.407 21.233 65.3374 22.2317 64.0385 22.7735C63.801 22.8724 63.8846 23.2106 64.1462 23.1632C64.8079 23.0438 65.3567 22.6641 65.8751 22.2534C66.4701 21.7824 67.04 21.2768 67.6035 20.7684C68.6221 19.8498 69.6718 18.878 70.2463 17.606C70.798 16.3843 70.911 15.0205 70.846 13.6958C70.7899 12.5508 70.767 11.0945 69.6723 10.4234C68.5782 9.75294 67.2372 10.2643 66.7797 11.4286C66.7387 11.5345 66.9136 11.6088 66.9622 11.507Z" fill="#231F20"/>
<path d="M68.0406 17.5092C67.6287 18.4231 67.0869 19.2943 66.4761 20.0871C66.1677 20.4867 65.8337 20.8664 65.4768 21.2227C65.1111 21.5878 64.6945 21.8979 64.3347 22.266C64.2568 22.3455 64.3557 22.4719 64.4529 22.4187C64.8993 22.1735 65.2825 21.7996 65.6458 21.4463C66.025 21.0765 66.379 20.681 66.7054 20.2638C67.3467 19.4441 67.8335 18.5471 68.2196 17.5847C68.2588 17.4829 68.0857 17.4091 68.0406 17.5092Z" fill="#231F20"/>
<path d="M59.0592 17.4184C59.6179 18.54 60.3013 19.5885 61.097 20.5568C61.4867 21.0307 61.8969 21.4947 62.3404 21.9183C62.668 22.2307 63.1735 22.7158 63.6667 22.6385C63.7446 22.6262 63.7674 22.5127 63.713 22.463C63.5374 22.3027 63.2976 22.2202 63.0992 22.0897C62.8675 21.9382 62.6616 21.7515 62.4644 21.5585C62.0431 21.1466 61.6464 20.7077 61.2702 20.2549C60.509 19.3375 59.8333 18.3469 59.2406 17.3125C59.1727 17.1943 58.9995 17.2984 59.0592 17.4184Z" fill="#231F20"/>
<path d="M62.1138 15.9998C62.2817 17.1594 62.4654 18.3144 62.7088 19.4606C62.8282 20.0211 62.9651 20.5775 63.1067 21.1328C63.2524 21.7044 63.3817 22.3 63.6064 22.8459C63.6748 23.0127 63.9094 22.9524 63.8778 22.771C63.7807 22.2093 63.5958 21.6576 63.4484 21.107C63.2951 20.5325 63.1529 19.955 63.0072 19.3787C62.7217 18.2489 62.4397 17.1173 62.198 15.977C62.1863 15.9208 62.1062 15.9454 62.1138 15.9998Z" fill="#231F20"/>
<path d="M63.7672 17.43C63.9813 18.3065 64.0714 19.2186 64.0357 20.1202C64.0182 20.5643 63.9673 21.0072 63.8912 21.4455C63.8128 21.8977 63.6677 22.3319 63.5799 22.7806C63.5606 22.8801 63.7011 22.955 63.7531 22.8538C64.1603 22.0586 64.2803 21.0517 64.3084 20.1688C64.3388 19.221 64.206 18.2907 63.9298 17.3844C63.8982 17.2814 63.7408 17.3241 63.7672 17.43Z" fill="#231F20"/>
<path d="M65.6677 14.2414C65.6789 15.8685 65.721 17.471 65.3928 19.0754C65.2517 19.7634 65.0195 20.4339 64.707 21.0629C64.5532 21.3724 64.3794 21.672 64.1845 21.9569C64.0008 22.2249 63.7206 22.4648 63.6205 22.7772C63.5901 22.8726 63.6977 22.9305 63.775 22.8954C64.0482 22.7719 64.2273 22.4595 64.3922 22.2185C64.5988 21.9171 64.7813 21.5983 64.9411 21.2694C65.2593 20.613 65.4817 19.9179 65.6537 19.2105C66.044 17.6068 66.0328 15.8714 65.8374 14.2414C65.8245 14.1366 65.6672 14.1296 65.6677 14.2414Z" fill="#231F20"/>
<path d="M57.7739 21.6412C58.3695 21.4078 58.9166 21.7723 59.3326 22.1754C59.7445 22.575 60.095 23.0074 60.5736 23.3345C61.0217 23.641 61.5723 23.8242 62.1053 23.9119C62.7009 24.0102 63.4218 24.0898 63.9138 23.6791C64.2046 23.4368 64.0238 22.9659 63.7003 22.8705C63.3995 22.7816 63.1199 22.8541 62.8168 22.8722C62.5634 22.8875 62.3066 22.8828 62.0556 22.8453C61.5103 22.764 60.9492 22.5592 60.4794 22.2714C59.6222 21.7465 58.7335 20.715 57.6317 21.3036C57.4521 21.4002 57.5767 21.7184 57.7739 21.6412Z" fill="#231F20"/>
<path d="M63.6753 23.2698C63.8549 23.4599 64.0252 23.6518 64.2534 23.787C64.495 23.9303 64.8045 23.9736 65.0801 23.9935C65.6518 24.0345 66.2749 23.7905 66.7418 23.4775C67.259 23.1305 67.7054 22.6876 68.1536 22.2588C68.6041 21.8281 69.0769 21.4197 69.5256 20.9885C69.7386 20.7843 69.5168 20.4444 69.2465 20.5093C68.1524 20.7715 67.4942 21.8117 66.6195 22.4314C66.2164 22.7169 65.7699 22.9673 65.2785 23.0515C65.0515 23.0902 64.8297 23.1054 64.5998 23.0884C64.3657 23.0709 64.1335 23.0744 63.9293 22.941C63.7251 22.8064 63.5162 23.1007 63.6753 23.2698Z" fill="#231F20"/>
<path d="M63.7536 23.5388C64.8126 23.2919 65.8113 22.8536 66.6181 22.1123C67.0277 21.7361 67.387 21.2915 67.6122 20.7818C67.858 20.226 68.0393 19.6257 68.1294 19.0254C68.1528 18.8715 67.9457 18.751 67.858 18.9113C67.5912 19.3987 67.3899 19.9177 67.1026 20.3963C66.8376 20.838 66.5392 21.2575 66.1641 21.6127C65.4567 22.2832 64.544 22.7618 63.6143 23.0356C63.2919 23.1304 63.4259 23.6154 63.7536 23.5388Z" fill="#231F20"/>
<path d="M63.7591 22.8265C63.5555 22.6756 63.2348 22.6411 62.9932 22.5662C62.7358 22.486 62.5011 22.369 62.2677 22.235C61.7522 21.9378 61.3941 21.5183 60.9594 21.1239C60.166 20.4031 58.9245 19.8262 57.8473 20.2083C57.5899 20.2995 57.6554 20.6266 57.9088 20.6605C58.4646 20.7348 59.0093 20.7975 59.5078 21.0771C60.0174 21.3626 60.3527 21.8149 60.7547 22.2251C61.1432 22.6218 61.589 22.9629 62.1021 23.1799C62.5632 23.3748 63.2834 23.6381 63.7591 23.3754C63.9855 23.2496 63.9405 22.9611 63.7591 22.8265Z" fill="#231F20"/>
<path d="M66.7881 23.3695C74.6049 19.5389 83.5684 19.773 92.0539 19.9145C94.4323 19.9543 96.8172 19.9701 99.1873 19.7396C101.402 19.5243 103.578 19.0679 105.694 18.381C107.721 17.7234 109.681 16.8744 111.577 15.9038C113.167 15.0893 114.727 14.2316 116.125 13.1135C117.67 11.8784 119.083 10.4642 120.363 8.95819C121.516 7.60137 122.64 6.12519 123.281 4.45008C123.357 4.25232 123.037 4.11951 122.94 4.30615C122.19 5.74664 121.218 7.07362 120.181 8.3181C119.056 9.66907 117.822 10.9375 116.492 12.0884C115.211 13.1977 113.834 14.0648 112.345 14.8699C110.437 15.9032 108.462 16.8218 106.418 17.5561C104.307 18.3149 102.123 18.8702 99.8953 19.1463C97.5795 19.4336 95.2415 19.4629 92.9111 19.4441C88.6376 19.4096 84.3606 19.3008 80.0959 19.6548C75.4468 20.0415 70.8228 20.9917 66.6295 23.0998C66.4505 23.1905 66.6085 23.4578 66.7881 23.3695Z" fill="#231F20"/>
<path d="M114.834 13.7249C115.582 9.04299 120.176 6.30185 123.243 3.17631C124.086 2.3174 124.888 1.39296 125.464 0.330442C125.592 0.0928957 125.231 -0.118907 125.101 0.118639C124.007 2.1214 122.18 3.67305 120.5 5.17263C118.831 6.66344 117.134 8.17472 115.9 10.0634C115.193 11.1452 114.681 12.3482 114.494 13.6318C114.462 13.8524 114.799 13.9501 114.834 13.7249Z" fill="#231F20"/>
<path d="M125.094 0.0912766C124.796 0.707375 124.666 1.43113 124.489 2.0876C124.166 3.28469 123.856 4.48529 123.51 5.67536C123.144 6.93388 122.748 8.19007 122.256 9.4053C121.861 10.3783 121.405 11.3408 120.599 12.0388C119.003 13.4208 116.951 13.8297 114.899 13.6062C114.689 13.5834 114.654 13.9146 114.85 13.9684C116.552 14.4353 118.512 14.0146 120.005 13.1066C121.091 12.4454 121.816 11.5918 122.358 10.4585C123.496 8.07949 124.119 5.43372 124.726 2.87864C124.858 2.32397 124.987 1.76814 125.126 1.21523C125.203 0.907473 125.275 0.544134 125.398 0.269143C125.49 0.0655321 125.194 -0.11526 125.094 0.0912766Z" fill="#231F20"/>
<path d="M101.746 18.8615C101.818 17.5006 102.244 16.1917 102.751 14.9361C103.216 13.7853 103.769 12.673 104.415 11.6128C105.74 9.44157 107.431 7.62078 109.31 5.92227C110.375 4.95863 111.446 4.00669 112.322 2.86167C112.431 2.71833 112.192 2.53753 112.072 2.66918C110.299 4.61577 108.149 6.17152 106.394 8.13449C104.726 10.0003 103.389 12.1517 102.433 14.4646C101.856 15.8617 101.394 17.3414 101.336 18.8609C101.326 19.1254 101.732 19.1236 101.746 18.8615Z" fill="#231F20"/>
<path d="M111.821 2.86748C111.055 8.03206 108.577 12.8789 104.733 16.4263C104.178 16.9377 103.598 17.4221 102.992 17.8703C102.413 18.298 101.774 18.6485 101.209 19.0908C101 19.254 101.266 19.5168 101.469 19.4284C102.067 19.1675 102.622 18.7374 103.148 18.3548C103.686 17.9622 104.209 17.5468 104.711 17.1085C105.713 16.235 106.638 15.2708 107.464 14.2299C109.108 12.1604 110.418 9.80429 111.25 7.29251C111.721 5.87016 112.017 4.40334 112.158 2.91253C112.175 2.72297 111.85 2.67616 111.821 2.86748Z" fill="#231F20"/>
<path d="M101.767 18.4822C102.489 17.714 103.187 16.9534 103.834 16.1155C104.477 15.2841 105.094 14.4322 105.677 13.5581C106.229 12.7325 106.74 11.8812 107.279 11.0481C107.844 10.1728 108.488 9.38233 109.132 8.56671C109.212 8.46608 109.107 8.27826 108.98 8.36954C108.21 8.92771 107.641 9.73221 107.11 10.5104C106.543 11.3406 106.045 12.2165 105.499 13.0614C104.922 13.956 104.319 14.8336 103.685 15.6884C103.019 16.5842 102.348 17.4957 101.647 18.3628C101.581 18.4453 101.691 18.5635 101.767 18.4822Z" fill="#231F20"/>
<path d="M104.875 18.5814C107.275 18.2351 109.732 18.7248 111.784 20.0225C113.768 21.277 115.322 23.1422 117.53 24.045C118.659 24.5066 119.973 24.712 121.121 24.2071C121.326 24.117 121.169 23.8373 120.979 23.8701C119.786 24.0766 118.626 23.9256 117.517 23.4394C116.436 22.9667 115.499 22.247 114.588 21.5092C113.68 20.7732 112.783 20.0096 111.769 19.4205C110.78 18.8459 109.68 18.4521 108.557 18.2468C107.304 18.018 106.038 18.0215 104.791 18.2749C104.587 18.317 104.678 18.6095 104.875 18.5814Z" fill="#231F20"/>
<path d="M105.657 18.6205C106.235 19.8393 106.781 21.0779 107.509 22.2171C108.183 23.2696 109.016 24.2344 109.998 25.0109C110.942 25.7574 112.028 26.3027 113.223 26.4987C114.585 26.7222 115.978 26.5608 117.314 26.2518C118.642 25.9452 120.161 25.4444 121.145 24.4544C121.344 24.2543 121.09 23.9232 120.844 24.0648C120.328 24.3614 119.838 24.6867 119.291 24.9272C118.751 25.1653 118.192 25.3555 117.622 25.5058C116.385 25.8317 115.069 26.0371 113.789 25.93C111.331 25.7235 109.425 24.0531 108.051 22.1258C107.232 20.9761 106.537 19.7375 105.882 18.4889C105.803 18.3385 105.585 18.4707 105.657 18.6205Z" fill="#231F20"/>
<path d="M105.7 18.4084C106.272 18.4119 106.844 18.8923 107.261 19.2457C107.641 19.5675 107.993 19.922 108.326 20.2918C108.981 21.0191 109.565 21.8072 110.237 22.5204C111.474 23.8351 113.229 25.0176 115.112 24.4623C115.354 24.3909 115.25 24.0528 115.01 24.092C112.939 24.4342 111.258 22.975 109.971 21.5533C109.33 20.8447 108.721 20.1034 108.013 19.4575C107.425 18.9204 106.549 18.1463 105.7 18.1884C105.559 18.1954 105.557 18.4078 105.7 18.4084Z" fill="#231F20"/>
<path d="M90.1571 19.2206C91.0956 18.3751 91.6151 17.2213 92.0762 16.0693C92.5571 14.8675 93.0556 13.702 93.7829 12.6243C95.1888 10.542 97.1752 8.85225 99.436 7.76047C100.708 7.14613 102.086 6.74066 103.471 6.47269C103.642 6.43993 103.605 6.15089 103.429 6.16611C98.4004 6.602 93.9648 10.3741 92.1136 14.9635C91.5414 16.3829 91.0885 17.9229 89.933 18.9953C89.782 19.1358 90.0055 19.3569 90.1571 19.2206Z" fill="#231F20"/>
<path d="M89.8736 19.4251C95.2553 18.7803 99.9547 15.3739 102.277 10.4767C102.897 9.17023 103.417 7.7315 103.586 6.28867C103.613 6.05756 103.238 6.01427 103.184 6.23426C102.87 7.49513 102.554 8.72147 102.01 9.90862C101.483 11.0601 100.82 12.1548 100.033 13.1471C98.4423 15.1551 96.357 16.7524 94.0131 17.7833C92.6698 18.3743 91.2714 18.8031 89.8198 19.0272C89.5969 19.0629 89.6466 19.4526 89.8736 19.4251Z" fill="#231F20"/>
<path d="M89.7276 19.408C92.0229 17.9622 94.1193 16.2339 95.9769 14.2568C96.8873 13.2879 97.7468 12.2728 98.6431 11.291C99.5576 10.2894 100.54 9.39768 101.548 8.49372C101.691 8.36559 101.501 8.11283 101.34 8.22458C100.283 8.95477 99.3757 9.94357 98.5103 10.8856C97.6111 11.8644 96.7527 12.8807 95.847 13.8543C93.9788 15.8629 91.8649 17.634 89.5626 19.1254C89.3859 19.2395 89.548 19.5209 89.7276 19.408Z" fill="#231F20"/>
<path d="M91.2957 19.7883C94.7442 22.8004 94.6734 28.3137 98.6496 30.8758C99.2394 31.2555 99.8918 31.5545 100.568 31.7417C101.247 31.9301 102.014 32.0793 102.712 31.9266C102.905 31.8844 102.909 31.5714 102.712 31.5316C102.088 31.407 101.455 31.386 100.837 31.2163C100.205 31.0425 99.5981 30.7892 99.037 30.4498C98.0423 29.8472 97.2565 28.9848 96.6299 28.0135C95.4486 26.181 94.7857 24.0747 93.6974 22.1907C93.1147 21.182 92.4108 20.2587 91.4817 19.5467C91.3436 19.4414 91.1646 19.6742 91.2957 19.7883Z" fill="#231F20"/>
<path d="M91.8341 20.0908C94.0018 20.3781 96.0953 21.3446 97.7622 22.7529C99.4759 24.201 100.665 26.0739 101.351 28.2013C101.565 28.8659 101.761 29.5365 102.018 30.1859C102.243 30.7558 102.498 31.4444 102.962 31.8639C103.081 31.9716 103.335 31.868 103.261 31.6896C103.015 31.0928 102.66 30.5574 102.436 29.9443C102.219 29.3463 102.047 28.7325 101.854 28.1264C101.503 27.0229 101.057 25.9639 100.408 25.0003C99.1793 23.176 97.424 21.6688 95.4078 20.78C94.2704 20.2786 93.0721 19.9744 91.8341 19.8655C91.6872 19.8527 91.6943 20.0721 91.8341 20.0908Z" fill="#231F20"/>
<path d="M92.017 19.8142C94.1455 21.0341 95.7861 22.8771 97.0915 24.9302C97.7175 25.9143 98.2183 26.9622 98.8081 27.9657C99.3101 28.8205 100.026 29.8444 101.051 30.0767C101.242 30.12 101.356 29.8649 101.185 29.7584C100.686 29.4477 100.229 29.1276 99.8525 28.6689C99.4956 28.2342 99.2118 27.7404 98.9392 27.2507C98.3769 26.2391 97.824 25.2292 97.1687 24.2738C95.864 22.3705 94.2321 20.6357 92.151 19.5843C91.9994 19.5076 91.8672 19.7282 92.017 19.8142Z" fill="#231F20"/>
<path d="M76.4869 20.1428C77.3265 17.9774 78.722 16.029 80.4995 14.5341C82.4227 12.9169 84.7648 12.0135 87.1373 11.2734C87.8423 11.0534 88.552 10.8492 89.2641 10.6526C89.965 10.459 90.6923 10.3092 91.361 10.0202C91.5325 9.94585 91.4494 9.6416 91.2645 9.66266C90.6233 9.73521 90.0001 9.93239 89.3794 10.1032C88.6901 10.2934 88.0021 10.49 87.3187 10.7C86.0128 11.1014 84.718 11.5502 83.4729 12.1142C81.3163 13.0901 79.4446 14.64 78.0403 16.5415C77.247 17.6158 76.6326 18.8012 76.1915 20.0614C76.1248 20.2498 76.4167 20.3241 76.4869 20.1428Z" fill="#231F20"/>
<path d="M76.2449 20.1146C81.0561 18.8806 85.907 16.8603 89.2871 13.0836C89.7195 12.6009 90.1243 12.0924 90.497 11.5617C90.8551 11.0515 91.2811 10.4904 91.4736 9.89249C91.5256 9.73042 91.2869 9.57537 91.174 9.71813C90.8376 10.1447 90.6 10.6519 90.2928 11.1019C89.9599 11.5904 89.596 12.0573 89.2075 12.5031C88.4685 13.3509 87.6453 14.1274 86.7665 14.8289C84.8269 16.3764 82.5943 17.5343 80.2902 18.4348C78.9386 18.9631 77.5613 19.43 76.1717 19.8478C76.0015 19.8993 76.0723 20.159 76.2449 20.1146Z" fill="#231F20"/>
<path d="M76.3755 20.0644C78.1536 18.4607 80.0317 16.9646 81.9941 15.5932C82.9554 14.9215 83.9378 14.2803 84.9395 13.6706C85.4403 13.3658 85.9464 13.0691 86.4566 12.7807C86.9838 12.4823 87.539 12.212 88.0205 11.8428C88.1299 11.7591 88.0749 11.5485 87.9181 11.5994C86.8135 11.9586 85.7761 12.6836 84.7908 13.2868C83.7535 13.9216 82.7372 14.5909 81.7437 15.2925C79.7784 16.6809 77.9137 18.2009 76.1514 19.8398C76.0011 19.9796 76.2246 20.2002 76.3755 20.0644Z" fill="#231F20"/>
<path d="M73.8849 20.8675C76.1708 22.0874 77.7306 24.1902 79.3595 26.1362C80.164 27.0975 81.0066 28.043 81.9936 28.8217C82.8373 29.487 83.7781 30.0329 84.7646 30.4576C85.83 30.9169 86.9733 31.258 88.1411 31.0884C88.3933 31.0515 88.3319 30.6367 88.0814 30.646C87.0611 30.6829 86.0231 30.3634 85.0887 29.9796C84.1105 29.5777 83.1597 29.0441 82.3207 28.3987C80.3495 26.8822 78.9857 24.7565 77.2468 23.0065C76.2995 22.0534 75.2487 21.1986 74.0171 20.6428C73.8667 20.5743 73.7339 20.7867 73.8849 20.8675Z" fill="#231F20"/>
<path d="M74.1717 20.9004C76.7467 20.9993 79.3825 21.3918 81.7076 22.5597C83.6817 23.5508 85.413 25.0802 86.4182 27.069C87.0378 28.2953 87.2133 29.7329 87.9692 30.8913C88.1108 31.1078 88.4104 30.9212 88.3098 30.6924C87.7803 29.4924 87.5099 28.1988 86.9687 27.0052C86.5059 25.9836 85.8348 25.0691 85.0374 24.2828C83.2985 22.5679 81.0354 21.527 78.6657 21.0174C77.1866 20.6991 75.683 20.5844 74.1723 20.5938C73.9733 20.5944 73.9745 20.8928 74.1717 20.9004Z" fill="#231F20"/>
<path d="M74.4114 20.8457C76.7781 21.6081 79.0161 22.7618 80.9691 24.3047C81.941 25.0724 82.8227 25.9359 83.6898 26.8183C84.1473 27.284 84.6013 27.755 85.0811 28.1979C85.5182 28.601 85.9915 29.1147 86.5397 29.3587C86.6772 29.4202 86.7925 29.2721 86.6977 29.1539C86.3022 28.6584 85.73 28.2646 85.2754 27.8194C84.8085 27.3618 84.3509 26.8961 83.894 26.4298C83.0011 25.5188 82.0902 24.6388 81.0739 23.8659C79.1062 22.3693 76.8694 21.2318 74.4939 20.5455C74.3009 20.4888 74.2213 20.7842 74.4114 20.8457Z" fill="#231F20"/>
<path d="M61.2646 23.3907C57.6874 21.5934 53.714 20.6912 49.7694 20.1523C45.6369 19.5877 41.4599 19.4168 37.2924 19.4057C32.5356 19.3923 27.7162 19.7339 23.032 18.7083C20.7022 18.1981 18.4391 17.4018 16.2655 16.4247C15.2035 15.9473 14.1609 15.4265 13.137 14.8724C12.2886 14.4132 11.435 13.9509 10.6439 13.3957C9.13908 12.339 7.78343 11.0553 6.53134 9.71431C5.25702 8.3493 4.112 6.89184 3.12087 5.30977C2.91608 4.98329 2.72008 4.65154 2.5428 4.30868C2.44743 4.12438 2.12446 4.2531 2.20111 4.45261C2.82715 6.0774 3.90137 7.51321 5.01421 8.83668C6.24933 10.3052 7.61142 11.682 9.09345 12.9025C10.6006 14.1434 12.2869 15.0837 14.0234 15.9666C16.1157 17.0308 18.2887 17.9483 20.5395 18.6205C22.8781 19.3191 25.2811 19.7111 27.7162 19.8556C30.2017 20.0031 32.6906 19.9259 35.1779 19.8919C39.3378 19.8352 43.5083 19.9019 47.6508 20.3185C51.7575 20.7309 55.9304 21.4564 59.7586 23.0508C60.2144 23.2404 60.6637 23.4457 61.1072 23.6628C61.2868 23.7482 61.4448 23.4814 61.2646 23.3907Z" fill="#231F20"/>
<path d="M10.9973 13.6306C10.318 8.95984 5.83274 6.17248 2.75459 3.09141C1.85941 2.19505 1.0005 1.23434 0.389666 0.117403C0.259776 -0.119557 -0.101808 0.0916593 0.0274964 0.329205C1.07714 2.26643 2.81369 3.78123 4.43672 5.22815C6.1247 6.73358 7.87177 8.22731 9.15078 10.1136C9.89267 11.2078 10.4473 12.413 10.6562 13.7242C10.6931 13.9495 11.0301 13.8523 10.9973 13.6306Z" fill="#231F20"/>
<path d="M0.0797425 0.26952C0.371116 0.920723 0.485208 1.75623 0.653129 2.46243C0.952109 3.72213 1.26689 4.97773 1.61911 6.22338C1.98713 7.52637 2.39318 8.82176 2.93848 10.0627C3.40714 11.1288 3.97234 12.0222 4.91491 12.729C6.48529 13.9068 8.70979 14.4948 10.6283 13.9694C10.8214 13.9161 10.7915 13.5844 10.5792 13.6072C8.75894 13.8055 6.98846 13.5224 5.45027 12.478C4.43865 11.7911 3.87053 10.8994 3.38783 9.80002C2.361 7.46143 1.75778 4.94379 1.09604 2.48525C0.885409 1.7024 0.739722 0.826525 0.383989 0.0916539C0.284524 -0.115467 -0.0115312 0.0653244 0.0797425 0.26952Z" fill="#231F20"/>
<path d="M24.152 18.8612C24.0549 16.3062 22.9023 13.7517 21.6168 11.5816C20.3015 9.36175 18.603 7.49298 16.6834 5.78277C15.5594 4.78168 14.4308 3.78293 13.4162 2.66893C13.2974 2.53845 13.0564 2.71632 13.167 2.86142C14.7022 4.86944 16.8197 6.3269 18.5129 8.19099C20.1804 10.0264 21.5454 12.1409 22.5237 14.4198C23.1293 15.8305 23.6605 17.3166 23.743 18.8612C23.7565 19.1228 24.1625 19.1257 24.152 18.8612Z" fill="#231F20"/>
<path d="M13.3328 2.91287C13.8324 8.20265 16.4998 13.2063 20.4071 16.7771C20.9407 17.2645 21.4983 17.7238 22.0757 18.1573C22.6795 18.6108 23.3261 19.1251 24.0212 19.4287C24.2218 19.5165 24.4921 19.2556 24.2815 19.0911C23.7742 18.6945 23.2003 18.3797 22.6772 18.0011C22.1559 17.6237 21.6533 17.2212 21.1694 16.7964C20.1976 15.9434 19.3042 15.0049 18.4921 13.9985C16.8462 11.9589 15.576 9.63612 14.7241 7.15944C14.2443 5.76517 13.8857 4.32586 13.6698 2.86723C13.6417 2.67825 13.3146 2.72037 13.3328 2.91287Z" fill="#231F20"/>
<path d="M23.8428 18.3627C23.1413 17.4962 22.4702 16.5841 21.8055 15.6883C21.1707 14.8335 20.5681 13.9558 19.9906 13.0612C19.4453 12.217 18.9474 11.3405 18.3804 10.5103C17.8486 9.73209 17.2799 8.92759 16.5099 8.36942C16.3847 8.27873 16.2776 8.46479 16.3578 8.5666C16.9885 9.36524 17.6233 10.1381 18.1774 10.9947C18.728 11.846 19.2505 12.7149 19.8133 13.558C20.392 14.4257 21.0045 15.2705 21.6423 16.0961C22.2941 16.9404 22.9956 17.7074 23.724 18.4815C23.7989 18.5628 23.9095 18.4458 23.8428 18.3627Z" fill="#231F20"/>
<path d="M20.7081 18.2745C18.5052 17.8269 16.1725 18.1616 14.1691 19.1808C12.0476 20.2597 10.4994 22.1823 8.37498 23.2536C7.15858 23.8668 5.86554 24.1026 4.51984 23.8697C4.33202 23.8369 4.17171 24.1154 4.37766 24.2067C6.46526 25.1259 8.80502 23.8217 10.4374 22.5632C11.3975 21.8225 12.2933 20.9981 13.2897 20.3053C14.2721 19.6225 15.3545 19.1047 16.5124 18.7993C17.8481 18.4471 19.2576 18.3839 20.6238 18.5811C20.8204 18.6086 20.9123 18.316 20.7081 18.2745Z" fill="#231F20"/>
<path d="M19.6033 18.4889C18.5051 20.5829 17.2858 22.8566 15.4106 24.362C14.509 25.0858 13.44 25.6381 12.2979 25.8499C10.9949 26.0915 9.62467 25.9119 8.34391 25.6235C7.70031 25.4789 7.06842 25.2876 6.45758 25.0384C5.81165 24.7751 5.24236 24.41 4.6403 24.0642C4.39632 23.9238 4.13888 24.2526 4.33956 24.4539C5.19672 25.3157 6.4804 25.7984 7.6301 26.1149C8.95884 26.4806 10.3859 26.7059 11.7643 26.5643C14.2574 26.308 16.2303 24.6797 17.6486 22.7015C18.5508 21.4424 19.1669 20.0125 19.828 18.62C19.9 18.4708 19.6817 18.3385 19.6033 18.4889Z" fill="#231F20"/>
<path d="M19.7838 18.1884C18.9513 18.1474 18.0994 18.8911 17.5172 19.4153C16.7899 20.07 16.1686 20.8289 15.5133 21.5532C14.2261 22.975 12.5457 24.4336 10.4739 24.0919C10.2346 24.0527 10.1299 24.3909 10.3721 24.4623C12.2549 25.0175 14.0102 23.8351 15.2476 22.5204C15.9187 21.8072 16.5032 21.019 17.158 20.2918C17.4909 19.922 17.8425 19.5674 18.2228 19.2456C18.6394 18.8928 19.214 18.4119 19.7838 18.4084C19.926 18.4078 19.9248 18.1954 19.7838 18.1884Z" fill="#231F20"/>
<path d="M35.5518 18.9966C34.5256 18.044 34.0516 16.7147 33.5578 15.4404C33.0962 14.2486 32.5474 13.1123 31.8072 12.0662C30.3527 10.0096 28.3617 8.34971 26.0775 7.2866C24.7985 6.69157 23.4627 6.28961 22.055 6.16733C21.8806 6.15212 21.8409 6.44057 22.0135 6.47392C24.4931 6.95369 26.8463 7.91616 28.8204 9.51228C30.8325 11.1394 32.2671 13.1972 33.2185 15.5925C33.738 16.9002 34.2564 18.2564 35.3266 19.2212C35.4781 19.357 35.7022 19.1358 35.5518 18.9966Z" fill="#231F20"/>
<path d="M35.6697 19.0276C30.5467 18.2348 25.9877 14.9975 23.6842 10.3385C23.0324 9.01969 22.6591 7.6535 22.3057 6.23408C22.2513 6.01643 21.8763 6.05504 21.9038 6.28849C22.0542 7.57803 22.4965 8.8582 23.0149 10.043C23.5444 11.2536 24.2254 12.3951 25.0328 13.4406C26.6752 15.5662 28.8464 17.2373 31.3126 18.3009C32.6794 18.8901 34.1397 19.2488 35.6153 19.4255C35.84 19.4512 35.895 19.0621 35.6697 19.0276Z" fill="#231F20"/>
<path d="M35.9266 19.125C33.6248 17.6336 31.5103 15.8626 29.6421 13.854C28.7364 12.8804 27.8781 11.8647 26.9788 10.8852C26.1135 9.94324 25.2066 8.95444 24.1493 8.22425C23.9896 8.11367 23.7971 8.36409 23.9416 8.49339C24.9327 9.38273 25.9017 10.2586 26.8027 11.2433C27.7143 12.2397 28.5866 13.2724 29.5122 14.2565C31.3699 16.2335 33.4663 17.9613 35.7616 19.4076C35.94 19.5206 36.1027 19.2391 35.9266 19.125Z" fill="#231F20"/>
<path d="M34.0115 19.5473C30.4799 22.2533 30.5133 27.6133 26.8571 30.1889C26.2708 30.6019 25.6254 30.9138 24.9432 31.132C24.2324 31.3596 23.5063 31.3877 22.7813 31.5328C22.5842 31.572 22.5877 31.8856 22.7813 31.9277C23.9737 32.1881 25.3961 31.6937 26.4317 31.1221C27.462 30.5534 28.3069 29.7337 28.9856 28.7794C30.2927 26.941 30.9416 24.7481 31.9678 22.7594C32.5412 21.6477 33.2503 20.6157 34.197 19.7889C34.3269 19.6754 34.1508 19.4402 34.0115 19.5473Z" fill="#231F20"/>
<path d="M33.6529 19.8655C29.191 20.2581 25.2639 23.3726 23.807 27.5992C23.5659 28.2984 23.3723 29.0134 23.1324 29.7132C23.0136 30.0589 22.8831 30.4012 22.7252 30.7318C22.5695 31.0577 22.3642 31.3561 22.2261 31.6902C22.1524 31.8686 22.4063 31.9722 22.5256 31.8645C22.9335 31.4947 23.1681 30.9108 23.377 30.4123C23.6145 29.8448 23.8041 29.2591 23.9878 28.6723C24.3336 27.567 24.732 26.5127 25.3376 25.521C26.4732 23.6616 28.1448 22.1877 30.0826 21.2071C31.1984 20.6425 32.4125 20.2546 33.6523 20.0908C33.7927 20.0721 33.7997 19.8527 33.6529 19.8655Z" fill="#231F20"/>
<path d="M33.334 19.5842C31.2528 20.6351 29.621 22.3704 28.3162 24.2737C27.6609 25.2292 27.108 26.2396 26.5458 27.2507C26.2731 27.741 25.9888 28.2336 25.6324 28.6689C25.2568 29.1282 24.7993 29.4477 24.3002 29.7583C24.1311 29.8637 24.2411 30.1199 24.4342 30.0766C25.4587 29.8444 26.1748 28.8204 26.6768 27.9656C27.2666 26.9622 27.7674 25.9137 28.3935 24.9302C29.6988 22.8771 31.3394 21.0341 33.4679 19.8142C33.6177 19.7288 33.4861 19.5076 33.334 19.5842Z" fill="#231F20"/>
<path d="M49.3051 20.0587C48.5194 17.8137 47.1485 15.8144 45.3523 14.2546C43.4197 12.5765 41.0911 11.6234 38.677 10.854C37.9316 10.6165 37.1804 10.3977 36.4268 10.187C35.7059 9.98577 34.9775 9.74472 34.2315 9.66046C34.0466 9.6394 33.963 9.94423 34.1344 10.018C34.7072 10.2654 35.3215 10.4018 35.9218 10.5656C36.5695 10.7423 37.2155 10.9248 37.8579 11.1179C39.1287 11.5006 40.3931 11.9224 41.6083 12.4572C43.7562 13.4015 45.6419 14.8321 47.0713 16.7002C47.8723 17.7476 48.5322 18.9113 49.0085 20.1406C49.0793 20.3214 49.3713 20.2476 49.3051 20.0587Z" fill="#231F20"/>
<path d="M49.3111 19.8475C44.6368 18.4416 39.9631 16.5143 36.5907 12.8551C36.1367 12.3625 35.7113 11.8429 35.3246 11.2959C34.9647 10.7868 34.6932 10.2053 34.3088 9.71788C34.1959 9.57512 33.9572 9.73017 34.0093 9.89224C34.1795 10.4212 34.5417 10.912 34.8518 11.3672C35.1718 11.8377 35.5176 12.2917 35.8851 12.7264C36.6509 13.6327 37.5134 14.4495 38.4454 15.1832C40.409 16.7284 42.6352 17.8857 44.9604 18.7832C46.3564 19.3221 47.7887 19.7422 49.2374 20.1143C49.4106 20.1582 49.4814 19.899 49.3111 19.8475Z" fill="#231F20"/>
<path d="M49.3367 19.8398C47.5744 18.201 45.7097 16.6809 43.7444 15.2925C42.7509 14.5904 41.7346 13.9216 40.6972 13.2868C39.712 12.6842 38.674 11.9587 37.5699 11.5994C37.4143 11.5485 37.357 11.758 37.4676 11.8428C37.9491 12.212 38.5043 12.4823 39.0315 12.7807C39.523 13.0586 40.0104 13.3442 40.493 13.6373C41.514 14.2569 42.5151 14.9093 43.494 15.5938C45.4564 16.9653 47.3345 18.4619 49.1126 20.0651C49.2629 20.2002 49.487 19.9796 49.3367 19.8398Z" fill="#231F20"/>
<path d="M51.4655 20.6414C49.2334 21.6477 47.6654 23.5814 46.1149 25.4034C45.3133 26.3454 44.493 27.2803 43.5481 28.0831C42.736 28.7729 41.8098 29.3323 40.8444 29.7804C39.7901 30.2702 38.5789 30.6879 37.4012 30.6452C37.1531 30.6364 37.0864 31.0507 37.3415 31.0875C38.3689 31.2373 39.3829 30.9922 40.3371 30.6148C41.3534 30.2128 42.3294 29.6862 43.2082 29.0356C45.225 27.5431 46.6075 25.4063 48.2856 23.5767C49.258 22.516 50.3205 21.5482 51.5977 20.8666C51.7475 20.7859 51.6153 20.5735 51.4655 20.6414Z" fill="#231F20"/>
<path d="M51.316 20.5925C46.5533 20.5626 41.0781 22.0499 38.7149 26.6031C38.0415 27.9002 37.7677 29.3577 37.1785 30.6917C37.0778 30.9199 37.3774 31.1077 37.519 30.8906C38.1942 29.8562 38.3884 28.5906 38.8793 27.472C39.3246 26.4568 39.9769 25.5312 40.751 24.7402C42.422 23.0335 44.6331 21.9797 46.9395 21.4414C48.3718 21.1068 49.848 20.9558 51.316 20.8997C51.5125 20.892 51.5143 20.5936 51.316 20.5925Z" fill="#231F20"/>
<path d="M50.992 20.5442C48.6165 21.2299 46.3797 22.3673 44.4121 23.8645C43.4134 24.6246 42.5152 25.487 41.6376 26.3822C41.1801 26.8485 40.7225 27.3148 40.2568 27.7729C40.0245 28.0011 39.7899 28.2275 39.5488 28.4464C39.2943 28.6769 39.003 28.8846 38.7882 29.1537C38.6946 29.2713 38.8075 29.4205 38.9462 29.3585C39.4927 29.1151 39.9689 28.5997 40.4048 28.1977C40.8846 27.7548 41.3386 27.2838 41.7962 26.8181C42.6633 25.9363 43.5456 25.0727 44.5168 24.3045C46.4699 22.7616 48.7084 21.6078 51.0745 20.8455C51.2652 20.784 51.1868 20.488 50.992 20.5442Z" fill="#231F20"/>
</svg>
