<svg width="121" height="28" viewBox="0 0 121 28" fill="none" xmlns="http://www.w3.org/2000/svg">
<path d="M56.6543 12.1759C56.6241 12.6313 56.6787 13.0015 56.8633 13.4215C57.0452 13.8343 57.3067 14.2175 57.5849 14.571C58.1567 15.2978 58.882 15.8894 59.6431 16.4088C61.3353 17.5634 63.2505 18.4093 65.238 18.9031C67.2749 19.409 69.3908 19.5499 71.4765 19.3222C73.791 19.069 76.0525 18.4643 78.3197 17.958C82.9248 16.9297 87.5662 16.0183 92.2633 15.5328C95.9555 15.1512 99.657 15.1408 103.36 15.3778C107.039 15.6133 110.682 16.1062 114.289 16.8663C114.675 16.9479 115.062 17.0259 115.448 17.1038C115.633 17.1413 115.7 16.8891 115.525 16.8241C113.965 16.2408 112.31 15.9352 110.672 15.6565C108.852 15.3467 107.015 15.1304 105.177 14.9687C101.647 14.6588 98.0729 14.5268 94.5341 14.7675C89.967 15.0779 85.4368 15.8525 80.9596 16.7825C78.7007 17.252 76.459 17.8005 74.2002 18.2678C72.0292 18.717 69.842 18.9639 67.6294 18.7154C65.5951 18.4872 63.5858 17.8857 61.7574 16.9666C60.0907 16.1285 58.2779 14.9879 57.3483 13.3098C57.1367 12.9282 56.9189 12.5471 56.7229 12.1582C56.7058 12.1224 56.6569 12.1421 56.6543 12.1759Z" fill="#231F20"/>
<path d="M98.6455 14.8068C101.49 13.3507 104.813 13.1183 107.916 13.7224C110.588 14.2428 113.218 15.1578 115.734 16.1809C117.092 16.733 118.401 17.3771 119.718 18.0166C119.951 18.1299 120.133 17.818 119.92 17.6703C118.827 16.9087 117.569 16.381 116.341 15.8762C114.98 15.3163 113.593 14.8183 112.189 14.3743C109.384 13.4864 106.498 12.7793 103.533 13.046C101.761 13.2056 100.056 13.686 98.5083 14.5724C98.356 14.6597 98.4906 14.8864 98.6455 14.8068Z" fill="#231F20"/>
<path d="M98.6115 14.8863C100.884 16.644 103.607 17.7701 106.387 18.4392C109.34 19.1504 112.425 19.3911 115.446 19.0365C116.987 18.8556 118.524 18.5302 119.945 17.898C120.089 17.834 119.987 17.597 119.838 17.6443C114.341 19.3885 108.169 18.9689 102.838 16.8208C101.418 16.2489 100.056 15.5216 98.8283 14.6056C98.6671 14.4845 98.4503 14.7621 98.6115 14.8863Z" fill="#231F20"/>
<path d="M111.283 0.799116C108.631 1.01954 106.052 1.9127 103.84 3.39643C102.739 4.13465 101.722 5.00441 100.846 6.0005C99.9269 7.04597 99.1565 8.21101 98.3912 9.37034C97.967 10.0129 97.536 10.6529 97.0661 11.2637C96.5732 11.9042 96.0227 12.4745 95.4461 13.0386C95.2886 13.193 95.5043 13.4956 95.6889 13.3537C96.737 12.5473 97.5657 11.4519 98.3314 10.3851C99.1279 9.2752 99.8526 8.11016 100.699 7.03609C102.339 4.95502 104.486 3.29921 106.914 2.23814C108.298 1.633 109.783 1.22074 111.283 1.03307C111.429 1.01539 111.436 0.786119 111.283 0.799116Z" fill="#231F20"/>
<path d="M111.258 0.901882C110.142 1.67858 109.098 2.55457 108.15 3.52934C107.177 4.5301 106.36 5.64368 105.522 6.75569C104.693 7.85732 103.778 8.85497 102.678 9.69197C101.655 10.4707 100.524 11.0998 99.3513 11.6218C98.6895 11.9165 98.0121 12.1749 97.3258 12.4073C96.638 12.6402 95.9211 12.7904 95.2671 13.105C95.1268 13.1726 95.1943 13.407 95.3467 13.3982C95.9892 13.3613 96.5897 13.1544 97.2037 12.9656C97.8327 12.7717 98.455 12.557 99.0669 12.3148C100.269 11.8391 101.434 11.261 102.506 10.5362C103.592 9.80166 104.547 8.91528 105.369 7.89372C106.256 6.79158 107.028 5.60157 107.953 4.52906C108.999 3.31515 110.185 2.22549 111.483 1.28451C111.71 1.12023 111.494 0.737081 111.258 0.901882Z" fill="#231F20"/>
<path d="M109.6 1.61154C106.779 2.33365 104.822 4.5608 102.853 6.54777C100.726 8.69383 98.4856 10.7588 96.0131 12.503C95.3196 12.9922 94.6068 13.4543 93.8707 13.877C93.1663 14.281 92.4337 14.6152 91.7075 14.9755C91.5063 15.0753 91.6472 15.421 91.8619 15.342C93.1761 14.8601 94.415 14.0777 95.5754 13.3062C96.8371 12.4676 98.038 11.537 99.1927 10.5576C100.339 9.58541 101.441 8.56282 102.504 7.50019C103.524 6.48019 104.487 5.40299 105.524 4.39963C106.708 3.25486 108.046 2.24527 109.642 1.76646C109.741 1.73631 109.7 1.58606 109.6 1.61154Z" fill="#231F20"/>
<path d="M89.4436 15.8688C92.3321 16.4251 95.077 17.5797 97.4914 19.261C98.7375 20.1287 99.9119 21.0941 101.181 21.9296C102.378 22.7177 103.626 23.4304 104.906 24.0725C105.601 24.4208 106.306 24.7478 107.023 25.0493C107.744 25.353 108.487 25.6826 109.256 25.8375C109.41 25.8681 109.533 25.6394 109.371 25.5666C108.755 25.2926 108.108 25.0914 107.483 24.8393C106.796 24.5622 106.12 24.2586 105.453 23.9352C104.14 23.2989 102.862 22.5882 101.633 21.8011C100.382 21.0005 99.2225 20.0767 98.0149 19.2142C96.8088 18.3528 95.5278 17.6068 94.1709 17.0084C92.683 16.3518 91.126 15.8683 89.5279 15.5652C89.3293 15.5278 89.2445 15.8304 89.4436 15.8688Z" fill="#231F20"/>
<path d="M92.3765 16.5923C97.4245 17.3643 102.44 19.2422 106.245 22.7363C107.371 23.7708 108.335 25.0263 109.552 25.9548C109.71 26.0754 109.899 25.8176 109.762 25.6834C109.243 25.1771 108.715 24.6858 108.213 24.1623C107.733 23.6627 107.258 23.1568 106.75 22.6853C105.813 21.815 104.79 21.0394 103.712 20.3526C102.608 19.6487 101.495 19.0098 100.295 18.479C99.1178 17.9586 97.9049 17.5203 96.6681 17.1658C95.2738 16.7655 93.8561 16.4759 92.4186 16.284C92.2445 16.2601 92.2013 16.5653 92.3765 16.5923Z" fill="#231F20"/>
<path d="M92.5287 16.586C93.4608 17.6419 94.4065 18.6858 95.3636 19.7193C96.2697 20.6983 97.2034 21.659 98.2458 22.4949C99.2793 23.3236 100.424 23.9875 101.614 24.5651C102.8 25.1411 104.046 25.7587 105.338 26.053C106.8 26.3857 108.263 26.2329 109.735 26.0702C110.01 26.04 110.02 25.6111 109.735 25.6319C108.459 25.7244 107.15 25.8716 105.879 25.6542C104.583 25.4328 103.366 24.8458 102.185 24.2901C101.006 23.7354 99.8694 23.1037 98.8203 22.3276C97.7633 21.5457 96.8161 20.6239 95.9032 19.6809C94.8427 18.5849 93.8086 17.4636 92.7429 16.3723C92.6051 16.2315 92.4008 16.441 92.5287 16.586Z" fill="#231F20"/>
<path d="M100.051 4.90633C98.4587 5.18811 96.923 5.70383 95.4169 6.28558C93.8864 6.87668 92.3897 7.57019 90.9507 8.35728C87.979 9.98242 85.3583 12.1482 82.694 14.2189C81.897 14.8386 81.0933 15.4505 80.2745 16.0416C79.8955 16.3151 79.5149 16.5885 79.1214 16.8412C78.7003 17.1115 78.2474 17.3085 77.8149 17.555C77.6174 17.6678 77.7572 17.9423 77.9626 17.9048C78.7559 17.7593 79.479 17.1734 80.1221 16.7159C80.8146 16.223 81.4925 15.7099 82.1632 15.1869C83.5533 14.1024 84.9123 12.978 86.3097 11.9023C88.9746 9.85089 91.823 8.15193 94.9345 6.86784C96.6215 6.17172 98.3511 5.5957 100.096 5.06646C100.2 5.03579 100.156 4.88814 100.051 4.90633Z" fill="#231F20"/>
<path d="M82.6577 14.5546C84.2974 12.4039 85.8196 10.1554 87.805 8.2989C88.8131 7.35636 89.9402 6.55107 91.1993 5.97921C92.4954 5.39018 93.9063 5.05018 95.3194 4.90566C96.1309 4.82248 96.9481 4.79805 97.7633 4.82352C98.5624 4.84848 99.404 5.03303 100.198 4.94361C100.308 4.93113 100.397 4.75905 100.264 4.70187C99.6146 4.42477 98.8498 4.40917 98.1532 4.36966C97.3942 4.32651 96.631 4.32443 95.8725 4.37694C94.4231 4.47728 92.9789 4.75749 91.6225 5.2862C88.9467 6.3296 86.9332 8.30669 85.1947 10.5344C84.2143 11.7904 83.3086 13.101 82.3645 14.3841C82.2346 14.5603 82.5278 14.7251 82.6577 14.5546Z" fill="#231F20"/>
<path d="M100.301 4.83685C97.5627 5.5522 95.7369 7.72737 93.7385 9.56774C92.6899 10.5337 91.5597 11.3499 90.2579 11.9405C89.0206 12.5014 87.711 12.884 86.4108 13.2672C85.6747 13.4845 84.9401 13.706 84.2144 13.9565C83.526 14.1941 82.7613 14.4249 82.1452 14.819C81.9461 14.9464 82.0693 15.29 82.3116 15.2136C82.9666 15.0083 83.5931 14.7015 84.2455 14.4811C84.8684 14.2705 85.4995 14.0855 86.1291 13.8962C87.4173 13.5089 88.7134 13.1362 89.9569 12.6179C91.1968 12.1011 92.3364 11.4299 93.3715 10.5721C94.4559 9.67326 95.4224 8.64443 96.4621 7.6967C97.6189 6.64187 98.8817 5.64733 100.394 5.17008C100.605 5.10354 100.518 4.7807 100.301 4.83685Z" fill="#231F20"/>
<path d="M70.4905 19.3306C72.8248 18.7005 74.7665 17.1799 76.3828 15.4289C78.205 13.455 79.7589 11.2034 81.1204 8.89356C81.8441 7.66613 82.599 6.48653 83.6798 5.53828C83.7697 5.45926 83.6538 5.31212 83.5524 5.37347C82.5355 5.99056 81.8478 6.98821 81.2249 7.97701C80.5096 9.11399 79.8239 10.2671 79.0622 11.3749C77.6263 13.4643 76.0381 15.5496 74.0246 17.1186C72.9412 17.9628 71.7252 18.6272 70.3964 18.9917C70.1791 19.0509 70.2711 19.3899 70.4905 19.3306Z" fill="#231F20"/>
<path d="M74.5635 17.0556C76.4236 15.1923 77.2721 12.687 78.2936 10.3221C78.8047 9.13834 79.3724 7.97485 80.1137 6.91586C80.9876 5.66816 82.1678 4.73965 83.3707 3.82726C84.8909 2.67418 86.4905 1.56632 87.8833 0.258832C88.0086 0.14134 87.8469 -0.0671315 87.7003 0.0212477C86.2108 0.918557 84.843 2.03578 83.457 3.08281C82.2499 3.99468 81.0011 4.88626 80.0518 6.0799C78.4324 8.11626 77.677 10.66 76.6399 13.0083C76.04 14.3662 75.3262 15.7096 74.3327 16.8237C74.1928 16.9802 74.4133 17.2058 74.5635 17.0556Z" fill="#231F20"/>
<path d="M87.551 0.175594C86.6532 2.60498 85.89 5.11756 84.53 7.34108C83.1726 9.56044 81.2376 11.3093 79.2158 12.9116C78.6159 13.3873 78.0087 13.8531 77.3999 14.3173C77.0947 14.5497 76.787 14.779 76.4849 15.015C76.1506 15.2765 75.795 15.5177 75.5278 15.851C75.454 15.943 75.519 16.1338 75.6599 16.0776C76.3128 15.8192 76.8837 15.3103 77.4415 14.8918C78.017 14.4603 78.5904 14.0262 79.1602 13.5864C80.2026 12.7821 81.2298 11.9555 82.1828 11.0457C83.1326 10.1385 84.0018 9.14764 84.7156 8.0429C85.42 6.95272 85.9779 5.77572 86.4567 4.57065C87.0161 3.1623 87.4356 1.71183 87.8073 0.244735C87.85 0.0783745 87.6098 0.0175511 87.551 0.175594Z" fill="#231F20"/>
<path d="M73.7978 18.7812C77.2743 21.0786 81.3777 21.9634 85.4119 22.726C88.735 23.354 92.0206 24.3132 95.2132 25.42C96.1131 25.732 97.0067 26.0616 97.889 26.4198C98.6574 26.7312 99.4273 27.158 100.227 27.3711C100.357 27.406 100.485 27.2246 100.368 27.1289C99.8234 26.6854 99.1174 26.4234 98.477 26.1474C97.7169 25.8193 96.9407 25.5256 96.1625 25.2428C94.4578 24.6226 92.7276 24.072 90.9834 23.5734C89.403 23.1217 87.8091 22.711 86.1964 22.3886C84.2708 22.0034 82.3379 21.6816 80.4388 21.1742C78.1778 20.5701 75.9496 19.7503 73.9523 18.515C73.7833 18.41 73.633 18.6726 73.7978 18.7812Z" fill="#231F20"/>
<path d="M77.6941 20.5837C79.4154 20.7324 81.1393 20.7553 82.8658 20.7137C84.61 20.6721 86.3339 20.6263 88.0688 20.8639C91.2536 21.3006 94.3229 22.4797 97.018 24.2317C97.7234 24.6902 98.3972 25.1971 99.0112 25.7726C99.3221 26.0637 99.6168 26.3715 99.8924 26.6964C100.166 27.0193 100.399 27.377 100.698 27.6764C100.808 27.7871 101.038 27.6754 100.976 27.5142C100.714 26.8311 100.145 26.24 99.6376 25.7258C99.1172 25.1981 98.5459 24.7224 97.947 24.2868C96.6956 23.377 95.3133 22.658 93.9039 22.0279C92.3365 21.3276 90.7087 20.814 89.015 20.525C87.263 20.226 85.5006 20.1995 83.7299 20.278C81.7174 20.3674 79.7055 20.3934 77.6951 20.2427C77.4752 20.2281 77.4784 20.565 77.6941 20.5837Z" fill="#231F20"/>
<path d="M77.4893 20.4899C77.8148 20.7655 78.0944 21.0685 78.4324 21.33C78.7791 21.5983 79.1295 21.8577 79.4908 22.1062C80.2036 22.5959 80.9408 23.0477 81.6889 23.4813C83.0905 24.2933 84.5373 25.0269 86.0293 25.6565C88.9589 26.8927 92.0584 27.7017 95.2353 27.92C97.0242 28.0432 98.9208 28.0562 100.687 27.7084C100.964 27.6538 100.905 27.1912 100.62 27.2114C99.8004 27.2691 98.9862 27.3741 98.1648 27.4105C97.3824 27.4454 96.5985 27.4448 95.816 27.4095C94.2512 27.3388 92.6978 27.1225 91.1709 26.7758C88.0974 26.0786 85.1705 24.8569 82.4224 23.3259C81.6052 22.8704 80.8113 22.3776 80.0118 21.892C79.6203 21.6544 79.2325 21.4117 78.8394 21.1767C78.4048 20.9162 77.951 20.7093 77.5195 20.4499C77.4955 20.4369 77.4675 20.4712 77.4893 20.4899Z" fill="#231F20"/>
<path d="M64.2811 12.1578C64.0778 12.5607 63.8553 12.9599 63.6318 13.3524C63.4036 13.7533 63.1192 14.1172 62.8021 14.4509C62.1397 15.1481 61.3802 15.7246 60.564 16.23C58.8255 17.3051 56.8952 18.0584 54.8942 18.4717C52.7981 18.9047 50.6562 18.913 48.5444 18.5871C46.2492 18.2325 43.9924 17.631 41.7241 17.1392C37.2074 16.1603 32.6512 15.3207 28.0451 14.8954C24.447 14.5632 20.8313 14.6017 17.2291 14.8575C15.3669 14.9895 13.5083 15.1824 11.6596 15.4455C9.94869 15.6893 8.22166 15.9893 6.55909 16.4655C6.19258 16.5705 5.8349 16.6906 5.47826 16.8242C5.30411 16.8892 5.37065 17.1413 5.55521 17.1039C7.20738 16.7706 8.85227 16.4083 10.5185 16.1499C12.3999 15.8583 14.2928 15.6378 16.1903 15.4829C19.7681 15.1912 23.3865 15.0852 26.9685 15.3701C31.6759 15.7444 36.332 16.5835 40.9443 17.5759C43.2365 18.0693 45.513 18.6682 47.8223 19.0752C49.9528 19.4511 52.0884 19.5452 54.2308 19.212C56.2656 18.8954 58.2396 18.2164 60.041 17.2193C61.6349 16.3365 63.3791 15.1491 64.1402 13.4211C64.3253 13.0005 64.3794 12.6319 64.3492 12.1754C64.3477 12.1427 64.2988 12.1229 64.2811 12.1578Z" fill="#231F20"/>
<path d="M22.4926 14.572C19.716 12.9812 16.4075 12.7082 13.2929 13.2234C11.9532 13.4449 10.6337 13.8145 9.33661 14.2107C7.91526 14.6442 6.51055 15.135 5.12976 15.6856C3.74428 16.2377 2.3089 16.8142 1.08043 17.6704C0.868319 17.8181 1.04924 18.13 1.28266 18.0167C2.44667 17.4516 3.60288 16.8761 4.79703 16.3749C6.12376 15.8181 7.47648 15.3211 8.84428 14.8751C11.5627 13.9882 14.3602 13.2546 17.245 13.4386C19.011 13.5515 20.777 13.9986 22.3549 14.807C22.5103 14.8855 22.6455 14.6593 22.4926 14.572Z" fill="#231F20"/>
<path d="M22.1806 14.6042C19.9207 16.2907 17.2236 17.3325 14.4958 17.9787C11.6209 18.6598 8.59674 18.9005 5.65475 18.5969C4.12891 18.4393 2.6327 18.1066 1.17185 17.6429C1.02472 17.5961 0.919185 17.8321 1.06475 17.8966C3.66934 19.0549 6.69243 19.2925 9.51068 19.1703C12.5234 19.0398 15.5621 18.3978 18.3408 17.2197C19.7835 16.6078 21.157 15.8446 22.3979 14.8849C22.5565 14.7623 22.3439 14.4826 22.1806 14.6042Z" fill="#231F20"/>
<path d="M9.72819 1.03256C12.378 1.36425 14.9202 2.39102 17.0891 3.94285C18.1726 4.71799 19.1562 5.64025 20.0098 6.66285C20.8863 7.71248 21.6162 8.8744 22.4007 9.99214C23.2445 11.1946 24.147 12.4496 25.3214 13.3531C25.5039 13.4935 25.7238 13.1941 25.5642 13.0381C24.5551 12.0509 23.702 10.9872 22.9149 9.81486C22.1372 8.65605 21.388 7.47698 20.5011 6.39668C18.8047 4.33016 16.5516 2.75284 14.0635 1.78795C12.6702 1.2478 11.2156 0.92236 9.72767 0.798629C9.57587 0.785632 9.58211 1.01437 9.72819 1.03256Z" fill="#231F20"/>
<path d="M9.51903 1.28529C10.6633 2.11553 11.7218 3.06068 12.6737 4.10616C13.6474 5.17555 14.4522 6.37126 15.3333 7.51395C16.1371 8.55631 17.0406 9.49105 18.1085 10.2657C19.1498 11.021 20.2925 11.6283 21.4762 12.1279C22.1526 12.4133 22.8435 12.6639 23.5427 12.8869C24.2337 13.1068 24.9282 13.3574 25.6545 13.3995C25.8068 13.4083 25.8744 13.1739 25.734 13.1063C25.1564 12.8287 24.5367 12.6925 23.9285 12.4928C23.3192 12.2927 22.7166 12.0733 22.1245 11.8274C20.9257 11.3293 19.7658 10.7232 18.7048 9.97246C17.6073 9.19576 16.6559 8.26517 15.8262 7.20878C14.9544 6.09884 14.1631 4.93691 13.2018 3.89872C12.1626 2.7763 10.9991 1.77605 9.74414 0.902138C9.50655 0.736817 9.29029 1.11945 9.51903 1.28529Z" fill="#231F20"/>
<path d="M11.3601 1.76489C14.209 2.62009 16.1097 5.07754 18.1154 7.11286C20.2261 9.25528 22.4855 11.2792 24.9637 12.9906C26.2587 13.8848 27.6557 14.7961 29.1409 15.3405C29.3531 15.4184 29.4986 15.0748 29.2954 14.9739C27.9863 14.3241 26.7116 13.6742 25.4976 12.8528C24.2078 11.98 22.9846 11.0119 21.8086 9.99194C20.6789 9.01197 19.5908 7.98262 18.5302 6.92779C17.5212 5.92391 16.5724 4.8566 15.4931 3.9255C14.2943 2.89199 12.9514 2.00663 11.4032 1.60996C11.3029 1.58501 11.2613 1.73525 11.3601 1.76489Z" fill="#231F20"/>
<path d="M31.4692 15.5652C28.6171 16.1064 25.8857 17.2283 23.4854 18.8628C22.2387 19.7118 21.0732 20.672 19.8166 21.5064C18.6115 22.307 17.3529 23.0286 16.061 23.6795C15.3108 24.0574 14.5482 24.412 13.772 24.7338C13.0634 25.0275 12.3267 25.2547 11.6265 25.5666C11.4648 25.6384 11.5859 25.8687 11.7403 25.8375C12.4032 25.7044 13.0405 25.433 13.6644 25.1777C14.3272 24.9069 14.9807 24.6142 15.6248 24.3018C16.9235 23.6732 18.1878 22.9709 19.4049 22.1952C20.6697 21.3889 21.841 20.4593 23.0549 19.5807C24.2429 18.7209 25.5004 17.9686 26.8365 17.3619C28.3426 16.6777 29.9293 16.1813 31.5529 15.8688C31.7514 15.8304 31.6672 15.5278 31.4692 15.5652Z" fill="#231F20"/>
<path d="M28.582 16.2828C23.4841 16.9633 18.4933 18.9378 14.6082 22.3617C14.0405 22.8618 13.5144 23.4035 12.9914 23.9494C12.4211 24.5442 11.8269 25.1072 11.2384 25.6827C11.1027 25.8158 11.2883 26.0757 11.4479 25.9541C12.5396 25.1217 13.411 24.0076 14.4039 23.0646C15.3361 22.1792 16.3374 21.3734 17.4052 20.6565C18.447 19.9573 19.6006 19.374 20.7418 18.8556C21.9177 18.3217 23.1353 17.8798 24.3747 17.5185C25.7669 17.113 27.1908 16.811 28.6241 16.5921C28.7973 16.5656 28.7583 16.2594 28.582 16.2828Z" fill="#231F20"/>
<path d="M28.262 16.3723C26.4092 18.2704 24.6811 20.3484 22.6016 22.0073C21.5686 22.8313 20.4327 23.5045 19.2479 24.0852C18.0823 24.6561 16.8616 25.2607 15.5936 25.5596C14.1744 25.8939 12.7073 25.7369 11.2703 25.6324C10.986 25.6116 10.9953 26.04 11.2703 26.0707C12.5638 26.2136 13.8468 26.3566 15.1434 26.1544C16.4483 25.9506 17.6674 25.3704 18.8564 24.8193C20.0698 24.2573 21.2671 23.6283 22.339 22.823C23.4079 22.0198 24.3645 21.0809 25.2795 20.1087C26.366 18.9546 27.4276 17.775 28.4767 16.5865C28.6036 16.441 28.3993 16.2314 28.262 16.3723Z" fill="#231F20"/>
<path d="M20.906 5.06594C24.031 6.01368 27.0931 7.14544 29.9571 8.73003C32.9672 10.3952 35.592 12.6213 38.2793 14.7461C39.0393 15.347 39.8056 15.9397 40.5906 16.5074C41.3143 17.0304 42.1399 17.739 43.0393 17.9038C43.2425 17.9412 43.386 17.6678 43.1869 17.5539C42.8214 17.346 42.4357 17.1822 42.0754 16.9623C41.6949 16.7299 41.3304 16.4715 40.9681 16.2126C40.2595 15.7078 39.5639 15.1848 38.874 14.6551C37.4781 13.5831 36.1093 12.4768 34.6994 11.423C33.3539 10.417 31.9804 9.44746 30.5185 8.61618C29.1169 7.81921 27.6561 7.12673 26.1646 6.51484C24.4833 5.82496 22.7427 5.22139 20.9502 4.90478C20.8462 4.88711 20.802 5.03475 20.906 5.06594Z" fill="#231F20"/>
<path d="M38.6276 14.384C36.9755 12.1386 35.4418 9.71807 33.3722 7.82312C32.322 6.86134 31.1424 6.04512 29.8329 5.47742C28.5108 4.90399 27.1035 4.57283 25.6723 4.42467C24.8238 4.33681 23.9692 4.31914 23.1171 4.35605C22.3367 4.38984 21.4555 4.39191 20.7277 4.70228C20.5951 4.75895 20.6835 4.93154 20.7932 4.94402C21.4992 5.02356 22.2416 4.86656 22.9502 4.83433C23.6733 4.80157 24.3975 4.80885 25.1196 4.85876C26.527 4.95546 27.9259 5.23568 29.2423 5.74776C31.8084 6.74645 33.8094 8.7121 35.5094 10.8223C36.4883 12.0372 37.3882 13.3146 38.3344 14.5555C38.4644 14.726 38.7581 14.5612 38.6276 14.384Z" fill="#231F20"/>
<path d="M20.6096 5.16903C23.3094 6.02111 25.1477 8.39331 27.1975 10.1994C28.2233 11.1034 29.34 11.8578 30.5887 12.4193C31.8026 12.9651 33.0758 13.3561 34.3485 13.7377C35.0836 13.9576 35.8208 14.1707 36.5496 14.4109C37.2733 14.6495 37.9668 14.9854 38.691 15.2125C38.9312 15.2879 39.0585 14.9464 38.8574 14.818C38.3 14.4613 37.6159 14.2477 36.9946 14.0278C36.3578 13.8021 35.7126 13.5978 35.0648 13.406C33.7756 13.0239 32.4764 12.6599 31.2302 12.1489C29.9051 11.6056 28.7208 10.8575 27.6462 9.91136C26.5934 8.98442 25.6431 7.94831 24.5846 7.02812C23.4539 6.04503 22.163 5.21738 20.7006 4.83527C20.4854 4.77964 20.3981 5.10248 20.6096 5.16903Z" fill="#231F20"/>
<path d="M50.5984 18.992C48.2205 18.3401 46.2829 16.7379 44.6702 14.9271C42.8725 12.909 41.4028 10.6335 39.9929 8.33663C39.3118 7.22773 38.5804 6.06373 37.4429 5.37385C37.3431 5.31302 37.2245 5.4586 37.316 5.53866C38.2721 6.37774 38.9869 7.39878 39.6342 8.48532C40.3428 9.67584 41.0685 10.8482 41.8707 11.9794C43.3144 14.0153 44.9016 16.0256 46.9114 17.5338C47.9922 18.3448 49.1978 18.9785 50.5053 19.3315C50.7242 19.3903 50.8172 19.0518 50.5984 18.992Z" fill="#231F20"/>
<path d="M46.6566 16.8241C44.8895 14.8428 44.0483 12.2466 43.033 9.8437C42.5324 8.6589 41.9797 7.48137 41.2145 6.44161C40.3525 5.27033 39.2405 4.3751 38.089 3.50431C36.5205 2.31795 34.9749 1.03799 33.2889 0.0221524C33.1434 -0.065707 32.9791 0.140685 33.1059 0.259737C34.3427 1.42062 35.7526 2.41256 37.1028 3.43672C38.3385 4.37406 39.6226 5.28593 40.5839 6.52012C42.2022 8.59807 42.955 11.1611 44.0634 13.513C44.6753 14.8116 45.4057 16.0344 46.4257 17.056C46.5749 17.2057 46.7959 16.98 46.6566 16.8241Z" fill="#231F20"/>
<path d="M33.1847 0.246126C33.8351 2.81276 34.656 5.37732 36.0347 7.65699C37.4056 9.92417 39.3957 11.6876 41.4653 13.3028C42.0705 13.7749 42.6813 14.2386 43.2948 14.7003C43.9306 15.1791 44.5872 15.7832 45.3322 16.0785C45.4731 16.1341 45.5381 15.9433 45.4642 15.8518C45.0348 15.3174 44.3902 14.9249 43.8469 14.5121C43.2735 14.0764 42.7021 13.6387 42.1349 13.1947C41.1305 12.4087 40.1412 11.6003 39.2221 10.7149C38.2962 9.82331 37.4436 8.85062 36.7365 7.77552C36.0165 6.68013 35.4405 5.49533 34.9539 4.27986C34.4122 2.9261 33.9458 1.54374 33.4405 0.176461C33.3823 0.0173782 33.1421 0.0776854 33.1847 0.246126Z" fill="#231F20"/>
<path d="M47.0597 18.5157C43.5136 20.709 39.3743 21.5403 35.3313 22.29C31.9884 22.9097 28.6903 23.8886 25.4863 25.0162C24.5937 25.3302 23.7073 25.6619 22.8329 26.0227C22.0978 26.3258 21.2654 26.6242 20.6447 27.13C20.5277 27.2257 20.6551 27.4071 20.7861 27.3723C21.4776 27.1883 22.1373 26.8238 22.8001 26.553C23.5805 26.2343 24.3665 25.9307 25.1598 25.6468C26.8687 25.0349 28.6025 24.4901 30.3493 23.9988C31.9167 23.5574 33.4982 23.1499 35.0947 22.826C37.0422 22.4309 38.9948 22.0825 40.9106 21.545C43.1351 20.9206 45.2822 20.0602 47.2157 18.7824C47.3799 18.6737 47.2302 18.4101 47.0597 18.5157Z" fill="#231F20"/>
<path d="M43.3014 20.2435C41.4974 20.3787 39.6924 20.373 37.8858 20.3043C36.1104 20.2368 34.3642 20.1936 32.5976 20.4312C30.8903 20.661 29.2101 21.1206 27.625 21.7954C26.186 22.4078 24.7709 23.1096 23.4738 23.9887C22.7886 24.453 22.1341 24.9692 21.5398 25.5463C20.968 26.1015 20.3093 26.7591 20.0192 27.5145C19.9573 27.6757 20.1871 27.7875 20.2978 27.6767C20.8234 27.1496 21.2284 26.5127 21.7623 25.9856C22.2859 25.4688 22.8577 25.0025 23.4597 24.5809C24.6851 23.7225 26.0175 23.0306 27.3822 22.4229C28.9309 21.7335 30.5524 21.2458 32.2259 20.9703C33.9441 20.687 35.6545 20.6423 37.3914 20.6932C39.3644 20.7514 41.3331 20.7535 43.3009 20.583C43.5166 20.5643 43.5203 20.2269 43.3014 20.2435Z" fill="#231F20"/>
<path d="M43.4851 20.4517C43.1175 20.6727 42.7307 20.837 42.3621 21.0595C41.9857 21.2872 41.6099 21.5149 41.2355 21.7452C40.5316 22.1782 39.8298 22.6144 39.1134 23.0267C37.7019 23.8392 36.2442 24.578 34.7391 25.2019C31.8845 26.3856 28.8567 27.1696 25.7687 27.3781C24.8838 27.4379 23.9959 27.4524 23.109 27.4223C22.1966 27.3911 21.2941 27.2762 20.3843 27.2127C20.102 27.193 20.0365 27.6546 20.3172 27.7098C21.9148 28.0243 23.6205 28.031 25.2415 27.952C26.7996 27.8761 28.353 27.6619 29.8747 27.3178C33.022 26.605 36.0264 25.3365 38.8332 23.7576C39.6473 23.2996 40.4568 22.8245 41.2303 22.3004C41.6436 22.0202 42.0486 21.7332 42.4448 21.4291C42.8269 21.1354 43.1492 20.8006 43.5152 20.4907C43.537 20.4725 43.509 20.4377 43.4851 20.4517Z" fill="#231F20"/>
</svg>
