<svg width="80" height="26" viewBox="0 0 80 26" fill="none" xmlns="http://www.w3.org/2000/svg">
<path d="M13.7009 0.0542059C12.5932 -0.173266 11.441 0.359972 10.8579 1.36931C10.7202 1.60843 10.6209 1.86552 10.5582 2.13003C10.301 1.10058 9.49203 0.265808 8.46438 0.0542059C7.35672 -0.173266 6.20352 0.359972 5.62033 1.36931C5.48264 1.60843 5.38342 1.86552 5.32064 2.13003C5.06246 1.10164 4.2545 0.265808 3.22685 0.0542059C2.11919 -0.173266 0.965988 0.359972 0.382803 1.36931C-0.202406 2.3829 -0.109259 3.71176 0.611623 4.62481C1.33149 5.53683 2.55151 5.89126 3.61765 5.49027C4.46713 5.17076 5.10093 4.41533 5.32165 3.52236C5.41682 3.92017 5.59198 4.29894 5.84914 4.62481C6.56901 5.53683 7.78904 5.89126 8.85518 5.49027C9.70466 5.17076 10.3385 4.41533 10.5592 3.52236C10.6544 3.92017 10.8295 4.29894 11.0867 4.62481C11.8065 5.53683 13.0266 5.89126 14.0927 5.49027C15.1548 5.09034 15.8828 4.008 15.8828 2.82831C15.8817 1.49628 14.9533 0.312361 13.7009 0.0542059Z" fill="#FDAF27"/>
<path d="M5.05911 13.7879C5.33452 15.0184 6.03616 16.1663 7.26428 16.5176C8.43065 16.8509 9.73068 16.3102 10.3311 15.2067C10.6915 14.5444 10.6459 13.7953 10.6429 13.0621C10.6409 12.568 10.6378 12.075 10.6389 11.5809C10.6389 11.0371 10.6389 10.4932 10.6419 9.95051C10.6449 9.25434 10.6257 8.57825 10.9578 7.94663C11.4164 7.07271 12.3287 6.53523 13.2814 6.57439C14.2433 6.6146 15.1201 7.24516 15.5028 8.16881C15.7569 8.78245 15.7134 9.44795 15.7154 10.1007C15.7174 10.6393 15.7174 11.1789 15.7174 11.7174C15.7174 12.8812 15.7873 14.0947 15.5706 15.2405C15.0695 17.893 13.3108 20.2016 10.9274 21.2648C8.54406 22.3283 5.72127 22.0435 3.57282 20.5306C2.51376 19.7847 1.64101 18.7532 1.06592 17.5608C0.497926 16.3811 0.153685 14.9073 0.371366 13.5869C0.534375 12.6029 1.27854 11.7988 2.21508 11.5978C3.18807 11.3894 4.20661 11.8592 4.71387 12.751C4.89814 13.0737 4.97812 13.425 5.05911 13.7879Z" fill="#FDAF27"/>
<path d="M79.9999 13.6061C79.9999 17.2097 77.1741 20.0866 73.6061 20.0866C70.0625 20.0866 67.2844 17.2341 67.2844 13.6061C67.2844 9.97822 70.0625 7.15018 73.6295 7.15018C77.1752 7.15018 79.9999 10.0026 79.9999 13.6061ZM70.5657 13.6305C70.5657 15.5825 71.8587 16.9833 73.6305 16.9833C75.379 16.9833 76.6952 15.5571 76.6952 13.6305C76.6952 11.6785 75.3781 10.2279 73.6305 10.2279C71.8587 10.2279 70.5657 11.6541 70.5657 13.6305Z" fill="black"/>
<path d="M28.8548 16.0412C29.4562 16.402 30.0344 16.7712 30.7553 16.7268C31.4457 16.6845 32.0765 16.3068 32.4694 15.7132C32.8349 15.162 32.8267 14.5325 32.8267 13.8945C32.8267 12.8174 32.8267 5.44204 32.8267 4.90562C32.8267 4.53427 32.8076 4.16713 32.9442 3.8127C33.3501 2.76209 34.6654 2.42354 35.4916 3.15885C35.9339 3.55244 36.0597 4.09307 36.0597 4.66969C36.0597 5.83033 36.0919 13.8649 36.0514 14.6616C35.9785 16.0994 35.353 17.4917 34.3697 18.4958C33.3513 19.5369 31.9549 20.1092 30.5346 20.1083C29.1707 20.1072 27.7299 19.5601 26.837 18.4471C26.4786 17.9996 26.2701 17.4706 26.4108 16.8844C26.5464 16.3195 26.9828 15.8677 27.5265 15.7344C28.0205 15.6159 28.4357 15.7894 28.8548 16.0412Z" fill="black"/>
<path d="M51.2548 17.0797L51.2569 17.0786C50.7607 16.7644 50.454 16.2057 50.4449 15.5995V8.83988C50.4449 7.9067 49.7209 7.15128 48.828 7.15128C48.0098 7.15128 47.3367 7.78609 47.2282 8.61027C46.4123 7.69087 45.177 7.15128 43.6947 7.15128C40.3667 7.15128 37.948 9.87883 37.948 13.6316C37.948 17.3854 40.3667 20.1119 43.6947 20.1119C43.7099 20.1119 43.7251 20.1109 43.7402 20.1109C43.7556 20.1109 43.7708 20.1119 43.7859 20.1119C45.3826 20.1119 46.7677 19.4835 47.7781 18.4159C48.2944 19.2549 49.1276 19.8696 50.1239 20.0579C50.2212 20.0759 50.3184 20.0854 50.4136 20.0854C50.4196 20.0854 50.4256 20.0845 50.4306 20.0834C50.4378 20.0834 50.446 20.0845 50.4529 20.0845C51.3095 20.0845 52.0031 19.3596 52.0031 18.4646C52.004 17.8763 51.7033 17.3632 51.2548 17.0797ZM44.294 17.0342C42.4981 17.0342 41.2293 15.608 41.2293 13.6316C41.2293 11.6542 42.5222 10.2036 44.294 10.2036C46.066 10.2036 47.287 11.6044 47.287 13.6316C47.287 15.6577 46.0893 17.0342 44.294 17.0342Z" fill="black"/>
<path d="M65.5216 8.85146C65.5216 7.87597 64.8512 7.15018 63.9411 7.15018C63.1028 7.15018 62.4325 7.80084 62.3605 8.70122C61.5467 7.72573 60.277 7.15018 58.745 7.15018C55.417 7.15018 52.9983 9.87773 52.9983 13.6305C52.9983 17.3833 55.417 20.1107 58.745 20.1107C60.2395 20.1107 61.4747 19.5702 62.2888 18.6116V19.0136C62.2775 21.0334 61.0777 22.3876 59.2958 22.3876C58.5325 22.3876 57.8461 22.1338 57.3114 21.6545C57.112 21.4756 56.9357 21.2661 56.787 21.0323C56.2929 20.2557 55.2894 20.0451 54.5464 20.5615C53.8032 21.0778 53.6018 22.1263 54.0958 22.9029C54.4087 23.3939 54.7823 23.8361 55.2064 24.2169C56.3354 25.2305 57.7498 25.7658 59.2969 25.7658C62.8638 25.7658 65.4618 22.977 65.5195 19.1162L65.5225 18.3852C65.5225 18.3852 65.5225 18.3852 65.5225 18.3841L65.5216 8.85146ZM59.3445 17.0341C57.5484 17.0341 56.2798 15.6079 56.2798 13.6315C56.2798 11.6552 57.5727 10.2036 59.3445 10.2036C61.1163 10.2036 62.3373 11.6044 62.3373 13.6315C62.3373 15.6576 61.1396 17.0341 59.3445 17.0341Z" fill="black"/>
</svg>
