<svg width="80" height="18" viewBox="0 0 80 18" fill="none" xmlns="http://www.w3.org/2000/svg">
<path fill-rule="evenodd" clip-rule="evenodd" d="M29.9456 13.0783C29.9456 14.5891 28.9879 15.4403 26.945 15.5043V17.8025C29.2647 17.8025 32.2013 16.5469 32.2013 13.0783V1.81589H29.9456V13.0783ZM43.2568 6.66633C43.2568 4.87865 42.2778 1.60146 38.6602 1.60146C35.2338 1.60146 34.0636 4.47443 34.0636 7.45366C34.0636 10.4329 35.2551 13.3059 39.1922 13.3059C40.2562 13.3059 41.618 13.0506 43.1716 11.9438L42.0223 10.1563C41.0435 10.7733 40.1072 11.0928 39.1922 11.0928C37.4468 11.0928 36.6383 9.90105 36.4469 8.6668H41.1925C42.5973 8.6668 43.2568 8.11337 43.2568 6.66633ZM36.4256 6.45355C36.5745 5.04897 37.1704 3.81472 38.6602 3.81472C40.1499 3.81472 40.7456 5.04897 40.8945 6.45355H36.4256ZM49.3907 1.60146C46.5816 1.60146 45.1343 3.92123 45.1343 3.92123V13.1782H47.39V4.66586C47.39 4.66586 48.0927 3.81472 49.3907 3.81472C50.8164 3.81472 51.6037 4.98516 51.6037 6.02798V13.1782H53.8597V6.02798C53.8597 3.87853 52.3484 1.60146 49.3907 1.60146ZM56.3632 1.72909H58.6189V13.1782H56.3632V1.72909ZM75.6812 6.24076H75.7025C74.9365 6.02798 73.9362 5.6451 73.9362 4.85754C73.9362 4.28299 74.5321 3.81472 75.6598 3.81472C76.7878 3.81472 78.0647 4.32545 78.5541 4.55959L79.2779 2.538C78.5328 2.1549 77.0219 1.60146 75.6598 1.60146C73.702 1.60146 71.6591 2.60182 71.6591 4.85754C71.6591 6.94317 73.4893 7.98575 75.2983 8.4329C76.2771 8.64545 77.5113 9.04991 77.5113 9.85859C77.5113 10.7097 76.511 11.0928 75.5324 11.0928C74.5748 11.0928 73.2551 10.4758 72.2548 9.94352L71.3825 12.0505C72.3399 12.5399 73.7447 13.2634 75.5324 13.3061C77.5965 13.3061 79.767 12.3271 79.767 9.85859C79.767 7.47501 77.3834 6.66657 75.6812 6.24076ZM67.6528 8.87959C67.6528 9.91865 66.8706 11.0844 65.4534 11.0919C64.0368 11.0844 63.2544 9.91865 63.2544 8.87959V1.72909H60.9987V8.87959C60.9987 11.022 62.4999 13.2908 65.4398 13.3054L65.4674 13.3061C68.407 13.2916 69.9087 11.022 69.9087 8.87959V1.72909H67.6528V8.87959ZM12.1311 0.00146484C9.96339 0.00146484 6.88421 0.94035 5.06556 3.21578C2.18791 4.47255 0.086792 7.28217 0.086792 10.3503C0.086792 15.1123 4.14192 17.9569 9.02967 17.9569C9.83412 17.9569 10.5992 17.7781 11.3149 17.5977C11.8421 17.6805 12.3883 17.7244 12.952 17.7244C17.5648 17.7244 21.6298 13.9839 21.6298 9.09965C21.6298 4.05542 17.6209 0.00146484 12.1311 0.00146484ZM8.82368 3.65026C11.1427 3.65026 12.9417 5.93249 12.9417 7.9705C12.9417 10.7252 11.2589 12.5732 8.90861 12.5732C6.79952 12.5732 4.92011 10.6182 4.92011 7.84076C4.92011 5.55032 6.62263 3.65026 8.82368 3.65026ZM8.5133 17.0994C5.32081 17.0994 1.94556 14.0113 1.94556 10.1624C1.94556 8.28463 2.53582 6.40663 4.02791 5.14422C3.75999 5.69742 3.58216 6.36205 3.51013 7.15548C3.47354 7.44358 3.45313 7.74246 3.45313 8.05097C3.45313 12.2084 5.73113 15.654 9.29406 17.053C9.03623 17.0832 8.77559 17.0994 8.5133 17.0994ZM10.9063 16.6645C8.2306 16.1392 6.03659 14.1122 5.08879 11.7134C6.0272 12.6293 7.36233 13.2575 9.06415 13.2575C11.786 13.2575 14.3742 11.1733 14.3742 8.07935C14.3742 6.56076 13.8372 5.56651 13.8372 5.56651C14.9712 6.71818 15.6887 8.33554 15.6887 10.3081C15.6887 13.0809 13.6138 15.6657 10.9063 16.6645ZM13.5528 16.6797C15.7337 15.3767 17.0895 13.1494 17.0895 10.7262C17.0895 5.32909 11.8266 3.39501 11.8266 3.39501C10.8593 2.82539 9.66779 2.52135 8.34368 2.52135C8.24304 2.52135 8.07084 2.52393 7.97113 2.52745C9.31307 1.5156 11.059 0.892726 12.8253 0.892726C16.9429 0.892726 20.0575 4.80053 20.0575 8.45965C20.0575 12.7137 17.0468 16.0134 13.5528 16.6797Z" fill="#00A4DE"/>
</svg>
