<svg width="80" height="36" viewBox="0 0 80 36" fill="none" xmlns="http://www.w3.org/2000/svg">
<g clip-path="url(#clip0_725_316)">
<path fill-rule="evenodd" clip-rule="evenodd" d="M24.9554 0.00720051L1.05561 3.19422C1.05561 3.19422 0 3.3168 0 4.58872V27.2858C0 27.2858 0.144209 29.9421 3.17981 29.9421H30.2666C30.2666 29.9421 32.6807 29.3653 32.6807 26.9483V8.21991C32.6807 8.21991 32.7282 5.56358 29.5427 5.56358H3.42208C3.11467 5.49858 2.83195 5.34789 2.6066 5.12892C2.38126 4.90996 2.22251 4.63168 2.14871 4.32626C2.0694 3.90517 2.23957 3.86191 2.68517 3.86191H26.67V1.2748C26.67 1.2748 26.5849 -0.112493 24.9554 0.00720051Z" fill="#E8451E"/>
<path fill-rule="evenodd" clip-rule="evenodd" d="M16.8248 26.0903C14.8434 26.0903 13.384 25.2827 11.231 23.1528C11.0546 22.9687 10.9571 22.7231 10.9593 22.4682C10.9614 22.2133 11.063 21.9693 11.2424 21.7882C11.4218 21.6072 11.6648 21.5033 11.9196 21.4988C12.1745 21.4943 12.421 21.5894 12.6067 21.764C14.8737 24.005 15.9235 24.5617 17.7348 24.0714C18.7875 23.783 19.7321 22.4447 19.7869 20.906C19.8302 19.7105 18.9865 18.9303 17.2805 18.5886C14.2175 17.9757 12.4092 16.8047 11.9073 15.1059C11.5035 13.7388 12.0342 12.2116 13.3624 10.9238L13.4172 10.8748C16.2725 8.48815 19.5879 10.2662 20.942 11.5411C21.1227 11.7205 21.2263 11.9633 21.2308 12.2178C21.2352 12.4724 21.1402 12.7187 20.9658 12.9043C20.7915 13.0899 20.5517 13.2002 20.2973 13.2117C20.0429 13.2232 19.7941 13.135 19.6038 12.9658C19.4898 12.8591 16.9244 10.5287 14.7006 12.3515C13.9407 13.1028 13.5974 13.9263 13.7849 14.5579C14.056 15.478 15.4347 16.2307 17.6656 16.6778C21.4568 17.4363 21.7799 19.9412 21.7424 20.9824C21.6616 23.2508 19.7638 25.7918 17.9828 26.0168C17.5988 26.0657 17.212 26.0903 16.8248 26.0903Z" fill="white"/>
<path fill-rule="evenodd" clip-rule="evenodd" d="M42.7334 5.42659C42.301 5.16248 41.8328 4.9619 41.3432 4.83101C40.3338 4.54259 39.6055 4.17341 39.258 3.70185C38.9479 3.2923 38.9479 2.75872 39.32 2.07517C39.5305 1.66562 40.041 1.40604 40.6972 1.35413C41.5276 1.32121 42.3514 1.51408 43.081 1.91222C43.1861 1.96481 43.3079 1.97346 43.4195 1.93627C43.531 1.89909 43.6232 1.81911 43.6758 1.71393C43.7284 1.60875 43.7371 1.48699 43.6999 1.37543C43.6627 1.26387 43.5827 1.17166 43.4775 1.11907C42.4609 0.59703 41.4586 0.398021 40.6236 0.461473C39.6546 0.53502 38.8931 0.957553 38.5268 1.63966C37.9673 2.67076 38.0048 3.51438 38.5268 4.221C39.0099 4.85408 39.8911 5.33862 41.0952 5.67319C41.5074 5.78794 41.9033 5.95464 42.2734 6.16927C42.745 6.45769 43.055 6.79081 43.205 7.14989C43.3486 7.48888 43.369 7.86745 43.2627 8.21992C43.2045 8.40258 43.1251 8.57779 43.0262 8.74196C43.0262 8.76647 43.0016 8.79099 42.9771 8.82848C42.6166 9.36206 42.034 9.63461 41.3259 9.63461C40.5443 9.63461 39.5882 9.32456 38.5716 8.70446C38.4273 8.61794 38.2831 8.52997 38.162 8.44344C38.0633 8.37766 37.9426 8.35377 37.8263 8.37703C37.71 8.40029 37.6077 8.46879 37.5419 8.56746C37.4761 8.66614 37.4522 8.78691 37.4755 8.9032C37.4987 9.01949 37.5672 9.12178 37.6659 9.18756C37.8116 9.27938 37.9521 9.37903 38.087 9.48608C39.2537 10.1941 40.3583 10.5402 41.3014 10.5402C42.3195 10.5402 43.1632 10.1437 43.6967 9.34908C43.7184 9.30579 43.7434 9.26431 43.7717 9.22506C43.9158 8.99297 44.0283 8.74273 44.1063 8.48094C44.2728 7.93261 44.2375 7.34276 44.0068 6.81821C43.7386 6.23237 43.2932 5.74558 42.7334 5.42659Z" fill="#E8451E"/>
<path fill-rule="evenodd" clip-rule="evenodd" d="M49.5718 4.44597C49.0636 4.32116 48.5309 4.33812 48.0317 4.495C47.4631 4.67065 46.9385 4.96564 46.493 5.36026V0.884009C46.4865 0.770022 46.4367 0.662835 46.3537 0.584429C46.2707 0.506023 46.1608 0.462341 46.0467 0.462341C45.9325 0.462341 45.8227 0.506023 45.7397 0.584429C45.6567 0.662835 45.6068 0.770022 45.6003 0.884009V10.1047C45.6068 10.2187 45.6567 10.3259 45.7397 10.4043C45.8227 10.4827 45.9325 10.5264 46.0467 10.5264C46.1608 10.5264 46.2707 10.4827 46.3537 10.4043C46.4367 10.3259 46.4865 10.2187 46.493 10.1047V6.65381C46.5018 6.64688 46.5101 6.63916 46.5175 6.63074C47.077 5.94719 47.6971 5.5261 48.2927 5.34007C48.6342 5.2294 48.9998 5.21641 49.3483 5.30257C49.6319 5.37944 49.881 5.55027 50.0549 5.78712C50.2486 6.08706 50.3439 6.43993 50.3275 6.79658V10.0946C50.3275 10.2132 50.3746 10.3269 50.4584 10.4108C50.5423 10.4946 50.656 10.5417 50.7745 10.5417C50.8931 10.5417 51.0068 10.4946 51.0907 10.4108C51.1745 10.3269 51.2216 10.2132 51.2216 10.0946V6.79225C51.2369 6.25288 51.0804 5.7226 50.7745 5.27806C50.4824 4.86947 50.0572 4.57529 49.5718 4.44597Z" fill="#E8451E"/>
<path fill-rule="evenodd" clip-rule="evenodd" d="M57.166 9.01306C56.7502 9.42599 56.188 9.65773 55.602 9.65773C55.016 9.65773 54.4538 9.42599 54.0381 9.01306C53.6252 8.5973 53.3934 8.0351 53.3934 7.44912C53.3934 6.86314 53.6252 6.30094 54.0381 5.88517C54.4554 5.4742 55.017 5.24283 55.6027 5.24055C56.0397 5.24084 56.4668 5.37059 56.83 5.61344C57.1932 5.85629 57.4764 6.20133 57.6436 6.60499C57.8109 7.00866 57.8548 7.45283 57.7698 7.88143C57.6848 8.31002 57.4747 8.70381 57.166 9.01306ZM55.6027 4.35944C54.7949 4.37689 54.026 4.71008 53.4608 5.2876C52.8956 5.86513 52.5791 6.64105 52.5791 7.44912C52.5791 8.25718 52.8956 9.0331 53.4608 9.61063C54.026 10.1882 54.7949 10.5213 55.6027 10.5388C56.4106 10.5213 57.1795 10.1882 57.7447 9.61063C58.3099 9.0331 58.6264 8.25718 58.6264 7.44912C58.6264 6.64105 58.3099 5.86513 57.7447 5.2876C57.1795 4.71008 56.4106 4.37689 55.6027 4.35944Z" fill="#E8451E"/>
<path fill-rule="evenodd" clip-rule="evenodd" d="M64.6864 9.01307C64.2704 9.4258 63.7091 9.65882 63.1231 9.66201C62.6862 9.66173 62.2591 9.53197 61.8959 9.28912C61.5327 9.04628 61.2495 8.70123 61.0822 8.29757C60.915 7.89391 60.8711 7.44973 60.9561 7.02113C61.0411 6.59254 61.2512 6.19875 61.5599 5.8895C61.9766 5.47835 62.5378 5.24692 63.1231 5.24488C63.5592 5.24601 63.9852 5.37607 64.3475 5.61871C64.7098 5.86134 64.9923 6.20571 65.1594 6.60849C65.3265 7.01126 65.3707 7.45446 65.2866 7.88232C65.2024 8.31018 64.9936 8.7036 64.6864 9.01307ZM63.1347 4.35944C62.729 4.35896 62.3273 4.43874 61.9526 4.59417C61.5779 4.74959 61.2376 4.9776 60.9514 5.26507C60.915 5.29492 60.8817 5.32824 60.8519 5.36458V4.80649C60.8519 4.68792 60.8048 4.57421 60.7209 4.49038C60.6371 4.40654 60.5234 4.35944 60.4048 4.35944C60.2862 4.35944 60.1725 4.40654 60.0887 4.49038C60.0049 4.57421 59.9578 4.68792 59.9578 4.80649V13.5917C59.9578 13.7103 60.0049 13.824 60.0887 13.9078C60.1725 13.9917 60.2862 14.0388 60.4048 14.0388C60.5234 14.0388 60.6371 13.9917 60.7209 13.9078C60.8048 13.824 60.8519 13.7103 60.8519 13.5917V9.53366C60.8879 9.56388 60.9211 9.59717 60.9514 9.63317C61.3106 9.99226 61.7529 10.2572 62.2391 10.4046C62.7252 10.5519 63.2401 10.5771 63.7383 10.4779C64.2365 10.3787 64.7025 10.1581 65.0951 9.83581C65.4877 9.51348 65.7948 9.09931 65.9891 8.62997C66.1834 8.16064 66.2589 7.65063 66.2091 7.14512C66.1592 6.63961 65.9854 6.1542 65.7032 5.73188C65.4209 5.30957 65.0388 4.96338 64.5908 4.72399C64.1428 4.48459 63.6426 4.35938 63.1347 4.35944Z" fill="#E8451E"/>
<path fill-rule="evenodd" clip-rule="evenodd" d="M68.4994 6.76631C68.6099 6.40534 68.8081 6.07735 69.0763 5.81165C69.2514 5.63436 69.46 5.49361 69.69 5.39754C69.92 5.30148 70.1667 5.25201 70.416 5.25201C70.6652 5.25201 70.9119 5.30148 71.1419 5.39754C71.3719 5.49361 71.5805 5.63436 71.7557 5.81165C72.0221 6.08235 72.2259 6.40824 72.3527 6.76631H68.4994ZM72.3844 5.18001C72.1293 4.91868 71.8242 4.71145 71.4872 4.57072C71.1502 4.42998 70.7883 4.35862 70.4232 4.3609C70.0574 4.3548 69.6944 4.42442 69.3569 4.56539C69.0194 4.70635 68.7147 4.91561 68.4619 5.18001C67.3948 6.33368 67.4078 7.57532 67.8288 8.8285C68.0173 9.36267 68.3859 9.81448 68.8715 10.1062C69.3654 10.4142 69.9412 10.5651 70.5227 10.5388C71.2327 10.5126 71.9313 10.3526 72.582 10.0673C72.6391 10.0468 72.6913 10.0148 72.7356 9.97343C72.7799 9.93203 72.8153 9.88202 72.8396 9.82647C72.8639 9.77091 72.8766 9.71098 72.877 9.65034C72.8773 9.58971 72.8653 9.52964 72.8416 9.47382C72.8179 9.418 72.7831 9.3676 72.7392 9.3257C72.6954 9.28381 72.6435 9.25131 72.5866 9.23018C72.5298 9.20905 72.4692 9.19975 72.4087 9.20284C72.3481 9.20593 72.2888 9.22135 72.2344 9.24815C71.6904 9.49792 71.1022 9.63714 70.5039 9.6577C70.0946 9.67227 69.6898 9.56917 69.3373 9.36063C69.0247 9.14773 68.7827 8.84648 68.6422 8.49538C68.5471 8.23024 68.4808 7.95562 68.4446 7.67627H72.5517C72.7752 7.67627 73.5078 7.7253 73.1285 6.47212C72.9923 5.98499 72.7353 5.54009 72.3815 5.17857L72.3844 5.18001Z" fill="#E8451E"/>
<path fill-rule="evenodd" clip-rule="evenodd" d="M75.2772 6.76625C75.387 6.40498 75.5853 6.07684 75.854 5.81159C76.0293 5.63426 76.238 5.49348 76.4681 5.3974C76.6982 5.30131 76.9451 5.25184 77.1944 5.25184C77.4438 5.25184 77.6906 5.30131 77.9207 5.3974C78.1508 5.49348 78.3596 5.63426 78.5349 5.81159C78.8008 6.08244 79.0041 6.40831 79.1304 6.76625H75.2772ZM80.0044 7.23205V6.90614C79.9841 6.75939 79.9513 6.61465 79.9063 6.47351C79.7716 5.98478 79.515 5.53822 79.1607 5.17563C78.906 4.9142 78.6011 4.7069 78.2644 4.56615C77.9276 4.4254 77.5659 4.3541 77.2009 4.35652C76.8352 4.35033 76.4721 4.41991 76.1346 4.56088C75.7971 4.70185 75.4924 4.91116 75.2397 5.17563C74.1725 6.3293 74.184 7.57094 74.6066 8.82412C74.7946 9.35853 75.1634 9.81048 75.6492 10.1018C76.1431 10.4098 76.7189 10.5607 77.3004 10.5344C78.0104 10.5082 78.7091 10.3482 79.3597 10.0629C79.4168 10.0424 79.4691 10.0105 79.5134 9.96905C79.5577 9.92765 79.5931 9.87764 79.6174 9.82209C79.6417 9.76653 79.6544 9.7066 79.6547 9.64596C79.6551 9.58533 79.643 9.52526 79.6193 9.46944C79.5957 9.41362 79.5608 9.36322 79.517 9.32132C79.4732 9.27943 79.4212 9.24693 79.3644 9.2258C79.3075 9.20467 79.247 9.19537 79.1864 9.19846C79.1259 9.20155 79.0666 9.21697 79.0122 9.24377C78.4682 9.49354 77.8799 9.63276 77.2817 9.65332C76.8724 9.66789 76.4675 9.56479 76.115 9.35625C75.8021 9.14374 75.56 8.84237 75.4199 8.491C75.325 8.22572 75.2583 7.95116 75.2209 7.67189H79.3294C79.4924 7.67333 79.925 7.69929 80 7.23205H80.0044Z" fill="#E8451E"/>
<path fill-rule="evenodd" clip-rule="evenodd" d="M45.0307 22.064H40.3929V15.3251H44.575C44.6468 15.3246 44.7185 15.3285 44.7898 15.3366C45.4272 15.4073 48.2105 15.889 48.2105 18.8741C48.2105 22.0611 45.0278 22.0611 45.0278 22.0611L45.0307 22.064ZM44.2116 12.7567H37.7827V29.9421H40.3929V24.8126H44.4913C45.8668 24.826 47.2206 24.4693 48.4109 23.7801C49.817 22.948 51.2216 21.4814 51.2216 18.9462C51.2216 16.5682 49.9871 15.0598 48.6748 14.1267C47.3651 13.2179 45.8056 12.7382 44.2116 12.7538V12.7567Z" fill="#E8451E"/>
<path fill-rule="evenodd" clip-rule="evenodd" d="M57.6836 27.5756C56.9189 27.5756 56.1713 27.3489 55.5354 26.9242C54.8995 26.4995 54.4038 25.8958 54.1109 25.1894C53.818 24.483 53.741 23.7056 53.8898 22.9555C54.0386 22.2054 54.4064 21.5163 54.9467 20.9751C55.487 20.434 56.1756 20.0652 56.9255 19.9153C57.6754 19.7654 58.4529 19.8412 59.1597 20.133C59.8665 20.4249 60.471 20.9197 60.8966 21.555C61.3223 22.1903 61.5501 22.9375 61.5513 23.7022V23.7123C61.5505 24.7374 61.1426 25.7203 60.4173 26.4448C59.6921 27.1693 58.7087 27.576 57.6836 27.5756ZM61.5513 17.7262V18.9361C60.6493 18.204 59.5583 17.7425 58.4048 17.605C57.2513 17.4675 56.0824 17.6596 55.0336 18.1592C53.9848 18.6587 53.099 19.4452 52.4789 20.4275C51.8587 21.4098 51.5295 22.5477 51.5295 23.7094C51.5295 24.8711 51.8587 26.009 52.4789 26.9913C53.099 27.9736 53.9848 28.7601 55.0336 29.2596C56.0824 29.7592 57.2513 29.9513 58.4048 29.8138C59.5583 29.6763 60.6493 29.2148 61.5513 28.4827V29.8513H64.1586V17.7262H61.5513Z" fill="#E8451E"/>
<path fill-rule="evenodd" clip-rule="evenodd" d="M65.3325 17.5604H68.8195L72.9107 25.3909L76.8577 17.5604H80V17.582L70.6293 35.0241H67.5591L71.1369 28.5419L65.3325 17.5604Z" fill="#E8451E"/>
</g>
<defs>
<clipPath id="clip0_725_316">
<rect width="80" height="35.0241" fill="white"/>
</clipPath>
</defs>
</svg>
